<?xml version="1.0" encoding="UTF-8"?>
<svg version="1.1" xmlns="http://www.w3.org/2000/svg" width="491" height="161">
<path d="M0 0 C1.19109375 0.49113281 2.3821875 0.98226563 3.609375 1.48828125 C4.26429932 1.75737305 4.91922363 2.02646484 5.59399414 2.30371094 C9.41567748 3.89999831 13.11846171 5.64365708 16.796875 7.55078125 C25.69881738 12.14103453 35.05516908 15.78339683 44.33203125 19.53955078 C46.44003643 20.41777294 48.53044905 21.33893276 50.60546875 22.29248047 C51.65863281 22.76830566 52.71179688 23.24413086 53.796875 23.734375 C54.74433594 24.1770874 55.69179687 24.6197998 56.66796875 25.07592773 C60.01710837 25.97792298 61.34047516 25.39602612 64.359375 23.80078125 C66.99760829 22.27400756 69.5696472 20.66151022 72.15234375 19.04296875 C74.359375 17.80078125 74.359375 17.80078125 76.359375 17.80078125 C76.359375 17.14078125 76.359375 16.48078125 76.359375 15.80078125 C78.296875 14.48828125 78.296875 14.48828125 81.359375 12.80078125 C82.28943359 12.15496094 82.28943359 12.15496094 83.23828125 11.49609375 C89.55379877 7.37879503 95.92157268 6.4037847 103.359375 7.80078125 C107.09791254 10.35789892 109.54381047 12.62498283 111.359375 16.80078125 C112.35680753 23.17781768 112.51140978 29.61608116 112.52050781 36.05834961 C112.52547272 36.92305878 112.53043762 37.78776794 112.53555298 38.67868042 C112.54999579 41.49933703 112.55694099 44.31993772 112.5625 47.140625 C112.56674107 48.5940993 112.56674107 48.5940993 112.57106781 50.07693672 C112.58597592 55.18972159 112.59526227 60.30247878 112.59960938 65.4152832 C112.60512817 70.69697716 112.62925093 75.97841775 112.65758133 81.2600317 C112.67616254 85.32714094 112.68141056 89.39418802 112.68294525 93.46133614 C112.68597498 95.4098406 112.69401425 97.35834389 112.70713043 99.30680656 C112.72412041 102.02106409 112.72232986 104.73468601 112.71582031 107.44897461 C112.7250351 108.25469406 112.73424988 109.06041351 112.7437439 109.89054871 C112.70290012 115.30689132 112.70290012 115.30689132 110.98706055 117.77377319 C108.74718204 119.18705187 106.99813547 119.58154514 104.359375 119.80078125 C96.75510339 117.94856306 89.80382128 113.39318733 83.109375 109.48828125 C75.70100633 105.2315423 68.29440161 101.14975631 60.61328125 97.40625 C56.96802432 95.60768986 53.38061249 93.71808764 49.796875 91.80078125 C49.17498291 91.47118408 48.55309082 91.14158691 47.91235352 90.80200195 C44.81342768 89.15175601 41.75451985 87.45871768 38.734375 85.66796875 C37.6 85.01054688 36.465625 84.353125 35.296875 83.67578125 C34.29527344 83.07507813 33.29367188 82.474375 32.26171875 81.85546875 C28.45711288 80.47290673 26.98617315 81.11521971 23.359375 82.80078125 C21.39454072 83.87733013 19.45688555 85.00471722 17.546875 86.17578125 C15.48605915 87.38698467 13.42365852 88.59549737 11.359375 89.80078125 C10.60527344 90.24550781 9.85117187 90.69023438 9.07421875 91.1484375 C2.53470646 94.5587626 -4.40609579 94.9658927 -11.640625 93.80078125 C-14.76776036 92.15980923 -15.03690581 91.18641066 -16.640625 87.80078125 C-18.05519857 79.08820099 -17.84206453 70.24172879 -17.87890625 61.4375 C-17.88298178 60.61227152 -17.8870573 59.78704304 -17.89125633 58.93680763 C-17.91198992 54.58149095 -17.92635461 50.22620472 -17.93579102 45.87084961 C-17.9469228 41.37718199 -17.98143539 36.88400035 -18.02096272 32.39050579 C-18.04706438 28.92555303 -18.0554763 25.46071847 -18.05907249 21.99567604 C-18.06394298 20.33825145 -18.07557017 18.6808323 -18.09411049 17.02350426 C-18.11840043 14.71147541 -18.11755813 12.40073979 -18.1105957 10.08862305 C-18.11646194 8.7745195 -18.12232819 7.46041595 -18.12837219 6.10649109 C-17.56123752 2.2627321 -16.67780712 1.12981313 -13.640625 -1.19921875 C-9.47270496 -3.28317877 -4.20850783 -1.38627887 0 0 Z " fill="#F48332" transform="translate(19.640625,4.19921875)"/>
<path d="M0 0 C1.19109375 0.49113281 2.3821875 0.98226563 3.609375 1.48828125 C4.26429932 1.75737305 4.91922363 2.02646484 5.59399414 2.30371094 C9.41567748 3.89999831 13.11846171 5.64365708 16.796875 7.55078125 C25.69881738 12.14103453 35.05516908 15.78339683 44.33203125 19.53955078 C46.44003643 20.41777294 48.53044905 21.33893276 50.60546875 22.29248047 C51.65863281 22.76830566 52.71179688 23.24413086 53.796875 23.734375 C54.74433594 24.1770874 55.69179687 24.6197998 56.66796875 25.07592773 C60.01710837 25.97792298 61.34047516 25.39602612 64.359375 23.80078125 C66.99760829 22.27400756 69.5696472 20.66151022 72.15234375 19.04296875 C74.359375 17.80078125 74.359375 17.80078125 76.359375 17.80078125 C76.359375 17.14078125 76.359375 16.48078125 76.359375 15.80078125 C78.296875 14.48828125 78.296875 14.48828125 81.359375 12.80078125 C82.28943359 12.15496094 82.28943359 12.15496094 83.23828125 11.49609375 C89.55379877 7.37879503 95.92157268 6.4037847 103.359375 7.80078125 C107.09791254 10.35789892 109.54381047 12.62498283 111.359375 16.80078125 C112.35680753 23.17781768 112.51140978 29.61608116 112.52050781 36.05834961 C112.52547272 36.92305878 112.53043762 37.78776794 112.53555298 38.67868042 C112.54999579 41.49933703 112.55694099 44.31993772 112.5625 47.140625 C112.56674107 48.5940993 112.56674107 48.5940993 112.57106781 50.07693672 C112.58597592 55.18972159 112.59526227 60.30247878 112.59960938 65.4152832 C112.60512817 70.69697716 112.62925093 75.97841775 112.65758133 81.2600317 C112.67616254 85.32714094 112.68141056 89.39418802 112.68294525 93.46133614 C112.68597498 95.4098406 112.69401425 97.35834389 112.70713043 99.30680656 C112.72412041 102.02106409 112.72232986 104.73468601 112.71582031 107.44897461 C112.7250351 108.25469406 112.73424988 109.06041351 112.7437439 109.89054871 C112.70290275 115.3065426 112.70290275 115.3065426 110.98773193 117.77418518 C108.75355367 119.18272073 106.98883878 119.57471875 104.359375 119.80078125 C95.79772867 117.85564872 87.83812428 112.24061512 80.359375 107.80078125 C81.019375 107.47078125 81.679375 107.14078125 82.359375 106.80078125 C84.71919313 107.7365712 87.05568764 108.73425933 89.359375 109.80078125 C89.359375 110.46078125 89.359375 111.12078125 89.359375 111.80078125 C90.32875 111.78015625 91.298125 111.75953125 92.296875 111.73828125 C95.359375 111.80078125 95.359375 111.80078125 96.359375 112.80078125 C98.54230274 113.03559818 100.73140674 113.21441448 102.921875 113.36328125 C104.71818359 113.48896484 104.71818359 113.48896484 106.55078125 113.6171875 C107.47761719 113.67777344 108.40445313 113.73835938 109.359375 113.80078125 C109.45229165 102.36939973 109.52324979 90.93810892 109.56662369 79.50642586 C109.58744708 74.19750702 109.61566857 68.88884766 109.66113281 63.58007812 C109.70477805 58.45127711 109.72855153 53.32272477 109.73888397 48.19375229 C109.74624191 46.24263472 109.7606099 44.29152988 109.78229523 42.34051895 C110.45583734 27.90692507 110.45583734 27.90692507 105.359375 14.80078125 C99.56452339 11.90335545 95.06696008 12.96767815 89.109375 14.80078125 C86.44534308 15.71003716 86.44534308 15.71003716 84.359375 16.80078125 C84.359375 17.79078125 84.359375 18.78078125 84.359375 19.80078125 C82.874375 19.30578125 82.874375 19.30578125 81.359375 18.80078125 C78.614118 20.859724 76.19009408 22.8617075 73.921875 25.42578125 C70.10770438 28.7822514 65.61695701 29.80551368 60.734375 30.48828125 C52.1858168 32.02832685 45.06808813 37.78665962 38.171875 42.80078125 C35.359375 44.80078125 35.359375 44.80078125 33.359375 44.80078125 C33.359375 45.46078125 33.359375 46.12078125 33.359375 46.80078125 C31.049375 47.46078125 28.739375 48.12078125 26.359375 48.80078125 C26.689375 58.04078125 27.019375 67.28078125 27.359375 76.80078125 C31.02701427 78.26891483 31.02701427 78.26891483 34.7109375 79.6953125 C40.90650994 82.19696116 40.90650994 82.19696116 43.421875 85.55078125 C43.73125 86.29328125 44.040625 87.03578125 44.359375 87.80078125 C39.5631065 86.44798757 35.82653954 84.34796946 31.703125 81.62890625 C28.30884741 80.42959483 26.60777292 81.37626201 23.359375 82.80078125 C21.39454072 83.87733013 19.45688555 85.00471722 17.546875 86.17578125 C15.48605915 87.38698467 13.42365852 88.59549737 11.359375 89.80078125 C10.60527344 90.24550781 9.85117187 90.69023438 9.07421875 91.1484375 C2.53470646 94.5587626 -4.40609579 94.9658927 -11.640625 93.80078125 C-14.76776036 92.15980923 -15.03690581 91.18641066 -16.640625 87.80078125 C-18.05519857 79.08820099 -17.84206453 70.24172879 -17.87890625 61.4375 C-17.88298178 60.61227152 -17.8870573 59.78704304 -17.89125633 58.93680763 C-17.91198992 54.58149095 -17.92635461 50.22620472 -17.93579102 45.87084961 C-17.9469228 41.37718199 -17.98143539 36.88400035 -18.02096272 32.39050579 C-18.04706438 28.92555303 -18.0554763 25.46071847 -18.05907249 21.99567604 C-18.06394298 20.33825145 -18.07557017 18.6808323 -18.09411049 17.02350426 C-18.11840043 14.71147541 -18.11755813 12.40073979 -18.1105957 10.08862305 C-18.11646194 8.7745195 -18.12232819 7.46041595 -18.12837219 6.10649109 C-17.56123752 2.2627321 -16.67780712 1.12981313 -13.640625 -1.19921875 C-9.47270496 -3.28317877 -4.20850783 -1.38627887 0 0 Z " fill="#F48851" transform="translate(19.640625,4.19921875)"/>
<path d="M0 0 C0.74886475 0.00523682 1.49772949 0.01047363 2.26928711 0.01586914 C3.36188843 0.01961548 3.36188843 0.01961548 4.4765625 0.0234375 C5.40718506 0.0325415 6.33780762 0.04164551 7.29663086 0.05102539 C11.72069336 0.08196289 11.72069336 0.08196289 16.23413086 0.11352539 C16.23413086 7.70352539 16.23413086 15.29352539 16.23413086 23.11352539 C24.81413086 23.11352539 33.39413086 23.11352539 42.23413086 23.11352539 C42.23413086 28.06352539 42.23413086 33.01352539 42.23413086 38.11352539 C33.65413086 38.11352539 25.07413086 38.11352539 16.23413086 38.11352539 C16.30836978 43.11313301 16.39140913 48.11102905 16.49658203 53.10986328 C16.52970169 54.80801325 16.55777347 56.50626987 16.58056641 58.20458984 C16.61435255 60.65516326 16.66667724 63.1047707 16.72241211 65.55493164 C16.72880203 66.3062587 16.73519196 67.05758575 16.74177551 67.8316803 C16.8819596 72.93233423 17.82874807 76.58673607 20.23413086 81.11352539 C26.95383799 85.84786451 34.55113938 84.08914336 42.23413086 83.11352539 C42.93290016 84.87994222 43.61779669 86.65185203 44.29663086 88.42602539 C44.67948242 89.4121582 45.06233398 90.39829102 45.45678711 91.41430664 C46.23413086 94.11352539 46.23413086 94.11352539 45.23413086 97.11352539 C35.67864675 101.70242389 23.0100615 101.70854418 13.10913086 98.42602539 C8.93231925 96.67226028 6.10066946 94.69669865 3.23413086 91.11352539 C2.67725586 90.51540039 2.12038086 89.91727539 1.54663086 89.30102539 C-2.06918866 83.27465952 -2.08778234 76.18851901 -2.17993164 69.36352539 C-2.19929779 68.46480713 -2.21866394 67.56608887 -2.23861694 66.64013672 C-2.29791522 63.79802644 -2.34459722 60.95587454 -2.39086914 58.11352539 C-2.42909481 56.17470663 -2.46814914 54.23590401 -2.50805664 52.29711914 C-2.60357524 47.56938729 -2.68778775 42.84157607 -2.76586914 38.11352539 C-5.73586914 38.11352539 -8.70586914 38.11352539 -11.76586914 38.11352539 C-11.76586914 57.91352539 -11.76586914 77.71352539 -11.76586914 98.11352539 C-17.70586914 98.11352539 -23.64586914 98.11352539 -29.76586914 98.11352539 C-31.23710278 95.17105812 -30.88511679 92.56167517 -30.87939453 89.27709961 C-30.87961357 88.22327591 -30.87961357 88.22327591 -30.87983704 87.14816284 C-30.87913929 84.82148166 -30.87135333 82.49488012 -30.86352539 80.16821289 C-30.86166072 78.556814 -30.86023705 76.94541455 -30.85923767 75.33401489 C-30.85541634 71.08923787 -30.84558932 66.84449497 -30.83453369 62.59973145 C-30.82431132 58.26969871 -30.81973828 53.93966046 -30.81469727 49.60961914 C-30.80396672 41.11090555 -30.78689489 32.61221971 -30.76586914 24.11352539 C-28.0518562 22.75651892 -25.91740598 23.00113929 -22.88305664 23.01586914 C-21.71645508 23.0190918 -20.54985352 23.02231445 -19.34790039 23.02563477 C-18.12458008 23.03401367 -16.90125977 23.04239258 -15.64086914 23.05102539 C-14.40981445 23.05553711 -13.17875977 23.06004883 -11.91040039 23.06469727 C-8.86217522 23.07651209 -5.814046 23.09298512 -2.76586914 23.11352539 C-2.77372437 22.12171265 -2.77372437 22.12171265 -2.78173828 21.10986328 C-2.8024457 18.13192688 -2.81550926 15.15400557 -2.82836914 12.17602539 C-2.83674805 11.13510742 -2.84512695 10.09418945 -2.85375977 9.02172852 C-2.85859375 7.53769531 -2.85859375 7.53769531 -2.86352539 6.02368164 C-2.87138062 4.64901733 -2.87138062 4.64901733 -2.87939453 3.24658203 C-2.73921126 0.61264388 -2.64344608 0.16994365 0 0 Z " fill="#343435" transform="translate(327.765869140625,58.886474609375)"/>
<path d="M0 0 C8.85106204 5.9288833 13.86551035 13.52515575 16.3125 23.8125 C17 29 17 29 17 42 C-1.48 42 -19.96 42 -39 42 C-36.17855944 51.60285316 -36.17855944 51.60285316 -29.25 58.03125 C-22.13612607 61.12922736 -14.96335014 60.97689059 -7.75 58.3125 C-4.61173057 56.9471809 -2.20733608 55.49466449 0.3125 53.1875 C3 51 3 51 5.5625 50.9375 C8.52127611 52.22722292 10.65456397 53.78858888 13 56 C13 56.66 13 57.32 13 58 C13.66 58 14.32 58 15 58 C15 59.32 15 60.64 15 62 C14.34 62 13.68 62 13 62 C13 62.66 13 63.32 13 64 C12.34 64 11.68 64 11 64 C11 64.66 11 65.32 11 66 C8.953125 67.4375 8.953125 67.4375 6.25 69 C5.36828125 69.515625 4.4865625 70.03125 3.578125 70.5625 C2.72734375 71.036875 1.8765625 71.51125 1 72 C0.35546875 72.37125 -0.2890625 72.7425 -0.953125 73.125 C-6.71265357 75.58708855 -13.15906418 75.21516101 -19.3125 75.25 C-20.21162109 75.270625 -21.11074219 75.29125 -22.03710938 75.3125 C-32.25375604 75.37159846 -39.84143766 72.52946938 -47.5625 65.75 C-50.5224224 62.41060037 -52.80444782 58.87495701 -55 55 C-55.35707031 54.40316406 -55.71414063 53.80632812 -56.08203125 53.19140625 C-59.87252722 44.14260524 -59.5809041 28.15885087 -56 19 C-51.01225355 8.43385291 -43.92587754 1.97486221 -33 -2 C-31.39125 -2.61875 -31.39125 -2.61875 -29.75 -3.25 C-19.52392467 -5.29521507 -9.48306691 -4.45908469 0 0 Z M-31.75 14.25 C-36.91954009 20.37652413 -36.91954009 20.37652413 -38 28 C-33.99813807 28.02489435 -29.99630672 28.04295127 -25.99438477 28.05493164 C-24.63565281 28.05993113 -23.27692615 28.06673291 -21.91821289 28.07543945 C-19.95461415 28.08769842 -17.99097459 28.09273487 -16.02734375 28.09765625 C-14.25991821 28.10551147 -14.25991821 28.10551147 -12.45678711 28.11352539 C-8.90642424 27.99692685 -5.50457116 27.5655059 -2 27 C-2.60534778 20.64384829 -4.8728573 16.78873363 -9.75 12.6875 C-17.11576435 8.86296851 -25.24053111 8.92407091 -31.75 14.25 Z " fill="#343435" transform="translate(424,83)"/>
<path d="M0 0 C0.68964844 -0.00386719 1.37929687 -0.00773437 2.08984375 -0.01171875 C7.24666707 -0.00166646 7.24666707 -0.00166646 9.5 1.125 C9.50879936 2.04462021 9.50879936 2.04462021 9.51777649 2.9828186 C9.58180457 9.37475204 9.66624878 15.76618638 9.76245117 22.15771484 C9.79566646 24.54176241 9.82370892 26.92588797 9.84643555 29.31005859 C9.88004318 32.74089739 9.93236407 36.17102363 9.98828125 39.6015625 C9.99467117 40.66428375 10.0010611 41.727005 10.00764465 42.82192993 C10.11628866 48.31382799 10.36486544 52.40359906 13.5 57.125 C17.19033692 60.32273538 21.29783668 61.45931368 26.125 61.125 C31.62300479 60.19602678 35.88831807 57.32643363 39.5 53.125 C43.15032601 43.31819053 41.68391743 31.28414493 41.5625 21 C41.53487516 18.15968573 41.5102278 15.31942038 41.49131775 12.47903442 C41.4790553 10.72172416 41.46144646 8.96444155 41.43800354 7.20724487 C41.42114171 5.17979471 41.45522526 3.15202583 41.5 1.125 C43.3855253 -0.7605253 46.07768831 -0.00746689 48.58203125 -0.01171875 C49.37996094 -0.00785156 50.17789063 -0.00398438 51 0 C52.19689453 -0.00580078 52.19689453 -0.00580078 53.41796875 -0.01171875 C59.37339233 -0.00160767 59.37339233 -0.00160767 60.5 1.125 C60.59967586 3.38949379 60.62799831 5.65714211 60.62939453 7.92382812 C60.63202301 8.9896537 60.63202301 8.9896537 60.63470459 10.07701111 C60.63912277 12.43678191 60.63618525 14.79647837 60.6328125 17.15625 C60.63348555 18.78910334 60.63445558 20.42195658 60.63571167 22.05480957 C60.6371886 25.48137361 60.63503426 28.90791163 60.63037109 32.33447266 C60.6246738 36.73654501 60.62795284 41.13855641 60.63394356 45.54062653 C60.63754931 48.91368065 60.63641052 52.28672022 60.63381577 55.65977478 C60.63314654 57.28336087 60.63397478 58.90694827 60.63629532 60.53053284 C60.63882209 62.7957817 60.63498094 65.0609305 60.62939453 67.32617188 C60.62859894 68.61777222 60.62780334 69.90937256 60.62698364 71.2401123 C60.5 74.125 60.5 74.125 59.5 75.125 C56.96950598 75.19813567 54.46695163 75.21747527 51.9375 75.1875 C50.87112305 75.18073242 50.87112305 75.18073242 49.78320312 75.17382812 C48.02209987 75.16200864 46.26103964 75.14407263 44.5 75.125 C43.84 73.475 43.18 71.825 42.5 70.125 C41.84 70.723125 41.18 71.32125 40.5 71.9375 C32.68518052 77.63580587 23.44003833 78.70864237 13.9453125 77.91015625 C5.59521143 76.39326938 -0.19347861 72.13549869 -5.2734375 65.48046875 C-8.42294165 59.43221716 -8.86869955 52.87607171 -9.125 46.1875 C-9.16294678 45.32229736 -9.20089355 44.45709473 -9.23999023 43.56567383 C-9.77307216 29.43114568 -9.58323876 15.26662453 -9.5 1.125 C-6.46570323 -0.39214839 -3.32398333 -0.01863916 0 0 Z " fill="#363637" transform="translate(159.5,82.875)"/>
<path d="M0 0 C7.29853822 7.40453359 8.47489414 16.45854506 8.47270203 26.5221405 C8.45721817 27.60280289 8.44173431 28.68346527 8.42578125 29.796875 C8.42153641 30.93550491 8.41729156 32.07413483 8.41291809 33.24726868 C8.39627775 36.84348344 8.35865292 40.43911412 8.3203125 44.03515625 C8.30524675 46.49022622 8.29156167 48.94530507 8.27929688 51.40039062 C8.24642238 57.38300796 8.19637138 63.36529035 8.1328125 69.34765625 C5.5081524 69.5419648 2.88334485 69.72838863 0.2578125 69.91015625 C-0.86173828 69.99426758 -0.86173828 69.99426758 -2.00390625 70.08007812 C-7.640625 70.4609375 -7.640625 70.4609375 -9.8671875 69.34765625 C-9.87749496 68.79135025 -9.88780243 68.23504425 -9.89842224 67.66188049 C-10.00715556 61.83739032 -10.12169307 56.01303422 -10.23950195 50.1887207 C-10.28263804 48.01915307 -10.32432676 45.84955613 -10.36450195 43.67993164 C-10.42272485 40.54955235 -10.48626553 37.41931768 -10.55078125 34.2890625 C-10.56749374 33.32932022 -10.58420624 32.36957794 -10.60142517 31.38075256 C-10.72577421 25.64327336 -11.15056916 20.04234935 -11.8671875 14.34765625 C-12.5271875 14.34765625 -13.1871875 14.34765625 -13.8671875 14.34765625 C-14.5271875 13.35765625 -15.1871875 12.36765625 -15.8671875 11.34765625 C-21.6448089 8.79475377 -26.55911922 8.60438002 -32.5546875 10.53515625 C-37.25953343 13.10950591 -39.78758531 16.47278835 -41.8671875 21.34765625 C-42.19071562 23.68746166 -42.19071562 23.68746166 -42.18603516 26.20800781 C-42.20590485 27.16870178 -42.22577454 28.12939575 -42.24624634 29.11920166 C-42.26357315 30.66314606 -42.26357315 30.66314606 -42.28125 32.23828125 C-42.30061615 33.29803162 -42.3199823 34.35778198 -42.3399353 35.449646 C-42.39968304 38.83223438 -42.4460977 42.21485688 -42.4921875 45.59765625 C-42.53037166 47.89194187 -42.56942365 50.18621322 -42.609375 52.48046875 C-42.70538065 58.10273787 -42.79044233 63.72509302 -42.8671875 69.34765625 C-48.53973347 72.18392923 -55.5250883 70.34765625 -61.8671875 70.34765625 C-61.8671875 45.59765625 -61.8671875 20.84765625 -61.8671875 -4.65234375 C-56.2571875 -4.65234375 -50.6471875 -4.65234375 -44.8671875 -4.65234375 C-44.2071875 -3.00234375 -43.5471875 -1.35234375 -42.8671875 0.34765625 C-41.8359375 -0.43609375 -40.8046875 -1.21984375 -39.7421875 -2.02734375 C-28.07226266 -10.30620827 -10.7026762 -9.47119672 0 0 Z " fill="#2C2C2D" transform="translate(285.8671875,87.65234375)"/>
<path d="M0 0 C5.94 0 11.88 0 18 0 C18.0501123 2.27608154 18.10022461 4.55216309 18.15185547 6.8972168 C18.31888136 14.4211697 18.49624278 21.94485344 18.67867851 29.46844769 C18.78896155 34.02956862 18.89577254 38.59071558 18.99462891 43.15209961 C19.09017615 47.55488257 19.19486952 51.95736204 19.3058815 56.35978127 C19.34661123 58.03859705 19.38405651 59.71749587 19.41814804 61.39645958 C19.46649825 63.74988133 19.52656721 66.10273582 19.58935547 68.45581055 C19.60086639 69.1484903 19.61237732 69.84117004 19.62423706 70.55484009 C19.74171784 74.4334282 20.14603489 77.56363176 22 81 C25.15314785 83.10209857 25.86103081 83.2434761 29.44921875 83.1953125 C30.29677734 83.18886719 31.14433594 83.18242187 32.01757812 83.17578125 C32.89865234 83.15902344 33.77972656 83.14226562 34.6875 83.125 C35.58017578 83.11597656 36.47285156 83.10695313 37.39257812 83.09765625 C39.59532314 83.07409748 41.79752588 83.04120329 44 83 C48.57623049 92.3817527 48.57623049 92.3817527 48 98 C35.96243276 101.24088349 21.23024491 102.03443378 9.8125 96.4375 C5.30657152 92.53236199 1.89132836 87.67398508 0 82 C-0.09110421 79.3682664 -0.12604036 76.76358818 -0.11352539 74.13208008 C-0.11367142 73.33184921 -0.11381744 72.53161835 -0.1139679 71.70713806 C-0.11327105 69.06124158 -0.10548929 66.41541544 -0.09765625 63.76953125 C-0.09579126 61.93535907 -0.09436774 60.1011864 -0.09336853 58.26701355 C-0.08954972 53.43863551 -0.07972484 48.61028754 -0.06866455 43.78192139 C-0.05843677 38.85526944 -0.05386798 33.92861263 -0.04882812 29.00195312 C-0.03810203 19.33462008 -0.02051035 9.66731724 0 0 Z " fill="#323233" transform="translate(443,58)"/>
<path d="M0 0 C0.79792969 0.00386719 1.59585938 0.00773437 2.41796875 0.01171875 C3.61486328 0.00591797 3.61486328 0.00591797 4.8359375 0 C10.79136108 0.01011108 10.79136108 0.01011108 11.91796875 1.13671875 C12.01236853 3.40663762 12.03539101 5.67953842 12.03149414 7.95141602 C12.03164017 8.66357269 12.03178619 9.37572937 12.03193665 10.10946655 C12.03123745 12.47404987 12.02344481 14.83855536 12.015625 17.203125 C12.01376084 18.83837338 12.01233693 20.47362232 12.01133728 22.10887146 C12.00751193 26.4210666 11.9976815 30.73322827 11.9866333 35.04541016 C11.97641955 39.44237821 11.97183974 43.83935164 11.96679688 48.23632812 C11.95605924 56.86980877 11.93846231 65.50325574 11.91796875 74.13671875 C6.96796875 74.13671875 2.01796875 74.13671875 -3.08203125 74.13671875 C-3.08203125 71.16671875 -3.08203125 68.19671875 -3.08203125 65.13671875 C-4.56703125 65.63171875 -4.56703125 65.63171875 -6.08203125 66.13671875 C-6.08203125 64.81671875 -6.08203125 63.49671875 -6.08203125 62.13671875 C-6.74203125 62.13671875 -7.40203125 62.13671875 -8.08203125 62.13671875 C-8.41203125 63.12671875 -8.74203125 64.11671875 -9.08203125 65.13671875 C-9.74203125 65.13671875 -10.40203125 65.13671875 -11.08203125 65.13671875 C-11.08203125 64.47671875 -11.08203125 63.81671875 -11.08203125 63.13671875 C-11.74203125 62.80671875 -12.40203125 62.47671875 -13.08203125 62.13671875 C-11.43608593 57.45210515 -11.43608593 57.45210515 -9.55078125 55.77270508 C-3.64210324 49.19124707 -7.01920593 29.58844783 -7.08203125 20.94921875 C-7.10854722 17.22656587 -7.12851547 13.50396105 -7.14453125 9.78125 C-7.15282959 8.92723099 -7.16112793 8.07321198 -7.16967773 7.1933136 C-7.17820591 5.17425528 -7.13549442 3.15508713 -7.08203125 1.13671875 C-5.19650595 -0.74880655 -2.50434294 0.00425186 0 0 Z " fill="#404041" transform="translate(208.08203125,82.86328125)"/>
<path d="M0 0 C3.74227981 2.55083869 6.18495849 4.82540453 8 9 C8.99743253 15.37703643 9.15203478 21.81529991 9.16113281 28.25756836 C9.16858017 29.55463211 9.16858017 29.55463211 9.17617798 30.87789917 C9.19062079 33.69855578 9.19756599 36.51915647 9.203125 39.33984375 C9.20736607 40.79331805 9.20736607 40.79331805 9.21169281 42.27615547 C9.22660092 47.38894034 9.23588727 52.50169753 9.24023438 57.61450195 C9.24575317 62.89619591 9.26987593 68.1776365 9.29820633 73.45925045 C9.31678754 77.52635969 9.32203556 81.59340677 9.32357025 85.66055489 C9.32659998 87.60905935 9.33463925 89.55756264 9.34775543 91.50602531 C9.36474541 94.22028284 9.36295486 96.93390476 9.35644531 99.64819336 C9.37026749 100.85677254 9.37026749 100.85677254 9.3843689 102.08976746 C9.34352775 107.50576135 9.34352775 107.50576135 7.62835693 109.97340393 C5.39417867 111.38193948 3.62946378 111.7739375 1 112 C-7.56164633 110.05486747 -15.52125072 104.43983387 -23 100 C-22.01 99.505 -22.01 99.505 -21 99 C-18.64018187 99.93578995 -16.30368736 100.93347808 -14 102 C-14 102.66 -14 103.32 -14 104 C-13.030625 103.979375 -12.06125 103.95875 -11.0625 103.9375 C-8 104 -8 104 -7 105 C-4.81707226 105.23481693 -2.62796826 105.41363323 -0.4375 105.5625 C1.35880859 105.68818359 1.35880859 105.68818359 3.19140625 105.81640625 C4.11824219 105.87699219 5.04507813 105.93757813 6 106 C6.09291665 94.56861848 6.16387479 83.13732767 6.20724869 71.70564461 C6.22807208 66.39672577 6.25629357 61.08806641 6.30175781 55.77929688 C6.34540305 50.65049586 6.36917653 45.52194352 6.37950897 40.39297104 C6.38686691 38.44185347 6.4012349 36.49074863 6.42292023 34.5397377 C6.69569205 20.28406279 6.69569205 20.28406279 2 7 C1.67 6.01 1.34 5.02 1 4 C-6.6715475 3.59935825 -13.81721267 4.05165993 -21 7 C-22.02459317 7.97478656 -23.03074795 8.97016969 -24 10 C-24.66 10 -25.32 10 -26 10 C-26 9.34 -26 8.68 -26 8 C-18.47483146 0.94515449 -10.31056936 -1.79543845 0 0 Z " fill="#F1D1A0" transform="translate(123,12)"/>
<path d="M0 0 C1.19109375 0.49113281 2.3821875 0.98226563 3.609375 1.48828125 C4.25197266 1.75229736 4.89457031 2.01631348 5.55664062 2.28833008 C10.73913382 4.45346911 15.75656285 6.90561715 20.75 9.4765625 C23.89995265 11.07511632 27.09129041 12.46383756 30.359375 13.80078125 C30.359375 14.46078125 30.359375 15.12078125 30.359375 15.80078125 C23.86860368 15.5064152 19.83545642 14.27598677 14.359375 10.80078125 C12.70764688 10.09791822 11.04635582 9.41422882 9.359375 8.80078125 C9.359375 8.14078125 9.359375 7.48078125 9.359375 6.80078125 C8.18375 6.71828125 7.008125 6.63578125 5.796875 6.55078125 C2.62111956 6.1774907 0.57843941 5.50308812 -2.078125 3.73828125 C-6.12692255 1.14217726 -9.97246933 1.41970732 -14.640625 1.80078125 C-16.18820717 4.8959456 -15.7702239 8.15934199 -15.75415039 11.55517578 C-15.75436943 12.75530304 -15.75436943 12.75530304 -15.7545929 13.97967529 C-15.7538948 16.63100878 -15.74610721 19.2822725 -15.73828125 21.93359375 C-15.7364167 23.76919517 -15.73499297 25.60479708 -15.73399353 27.44039917 C-15.73017123 32.2770118 -15.72034339 37.11359452 -15.70928955 41.95019531 C-15.69906926 46.88345942 -15.69449458 51.81672836 -15.68945312 56.75 C-15.67872088 66.43360691 -15.66164789 76.1171916 -15.640625 85.80078125 C-14.72023438 86.26097656 -14.72023438 86.26097656 -13.78125 86.73046875 C-10.7109375 88.265625 -10.7109375 88.265625 -7.640625 89.80078125 C-7.640625 90.46078125 -7.640625 91.12078125 -7.640625 91.80078125 C0.25454292 90.80746294 6.72776567 88.22987786 13.359375 83.80078125 C13.689375 83.14078125 14.019375 82.48078125 14.359375 81.80078125 C17.00797927 81.20722511 19.65134822 81.05868856 22.359375 80.80078125 C21.01201991 84.05561349 19.91020522 85.39543734 16.734375 86.90625 C15.67476562 87.42155273 15.67476562 87.42155273 14.59375 87.94726562 C13.48773438 88.46256836 13.48773438 88.46256836 12.359375 88.98828125 C11.62203125 89.34341797 10.8846875 89.69855469 10.125 90.06445312 C8.76044264 90.72058609 7.39348225 91.37176092 6.0234375 92.01635742 C4.79462811 92.59560692 3.57444783 93.19324483 2.359375 93.80078125 C-9.34956555 94.97315933 -9.34956555 94.97315933 -13.640625 92.77734375 C-20.26015376 85.64558955 -17.84044263 70.62932028 -17.87890625 61.4375 C-17.88298178 60.61227152 -17.8870573 59.78704304 -17.89125633 58.93680763 C-17.91198992 54.58149095 -17.92635461 50.22620472 -17.93579102 45.87084961 C-17.9469228 41.37718199 -17.98143539 36.88400035 -18.02096272 32.39050579 C-18.04706438 28.92555303 -18.0554763 25.46071847 -18.05907249 21.99567604 C-18.06394298 20.33825145 -18.07557017 18.6808323 -18.09411049 17.02350426 C-18.11840043 14.71147541 -18.11755813 12.40073979 -18.1105957 10.08862305 C-18.11646194 8.7745195 -18.12232819 7.46041595 -18.12837219 6.10649109 C-17.56123752 2.2627321 -16.67780712 1.12981313 -13.640625 -1.19921875 C-9.47270496 -3.28317877 -4.20850783 -1.38627887 0 0 Z " fill="#EEB8AE" transform="translate(19.640625,4.19921875)"/>
<path d="M0 0 C2.91101362 1.69809128 3.36152916 2.83605631 5 6 C5.90752801 10.23238061 5.4941012 13.22590813 3.125 16.9375 C0.09342891 19.87990723 -1.68062457 20.1948004 -5.8125 20.3125 C-9.25518078 20.25777531 -10.91167989 20.04325883 -14.0625 18.5 C-16.69961724 15.09726807 -17.15254252 12.25424139 -17 8 C-14.89678623 -0.60405635 -7.7544089 -1.38799331 0 0 Z " fill="#2E2E2E" transform="translate(312,51)"/>
<path d="M0 0 C-0.33 0.66 -0.66 1.32 -1 2 C-1.58007812 1.89300781 -2.16015625 1.78601563 -2.7578125 1.67578125 C-8.22064244 0.83742616 -11.1299833 1.05533874 -16 4 C-18.375 4.6875 -18.375 4.6875 -20 5 C-20 5.99 -20 6.98 -20 8 C-20.99 7.67 -21.98 7.34 -23 7 C-25.745257 9.05894275 -28.16928092 11.06092625 -30.4375 13.625 C-34.25167062 16.98147015 -38.74241799 18.00473243 -43.625 18.6875 C-49.58197212 19.73658391 -54.07005221 22.84544263 -59.01953125 26.125 C-61.64998234 27.7798054 -64.08205401 28.96442582 -67 30 C-67 29.34 -67 28.68 -67 28 C-65.34467377 26.98133771 -63.67739862 25.98189187 -62 25 C-61.67 24.34 -61.34 23.68 -61 23 C-59.68 23 -58.36 23 -57 23 C-57 22.34 -57 21.68 -57 21 C-56.01 21 -55.02 21 -54 21 C-54 20.34 -54 19.68 -54 19 C-53.01 19 -52.02 19 -51 19 C-51.33 18.01 -51.66 17.02 -52 16 C-54.31611919 14.99110868 -54.31611919 14.99110868 -57.1875 14.25 C-64.57434966 11.97438807 -71.1865733 8.58813596 -78 5 C-74.96884626 3.24896152 -74.20825007 2.96970908 -70.5625 3.5 C-66.72664155 4.59289822 -63.22681407 6.23628982 -59.625 7.9375 C-58.50351563 8.45441406 -57.38203125 8.97132812 -56.2265625 9.50390625 C-54.26652275 10.41273824 -52.31916782 11.3506388 -50.3984375 12.33984375 C-47.68910463 13.50918123 -45.96391744 14.08380124 -43 14 C-39.26836848 12.25715846 -36.02876017 10.24222868 -32.6875 7.85546875 C-30 6 -30 6 -28 6 C-27.67 5.34 -27.34 4.68 -27 4 C-27 4.66 -27 5.32 -27 6 C-25.01508358 5.73323796 -25.01508358 5.73323796 -23 5 C-22.67 4.01 -22.34 3.02 -22 2 C-15.1110644 -0.89621341 -7.24133714 -2.31722789 0 0 Z " fill="#F1B14F" transform="translate(124,16)"/>
<path d="M0 0 C0.33 0 0.66 0 1 0 C1.26339623 7.59842003 1.52434192 15.19692103 1.78230286 22.79552746 C1.90220493 26.32523345 2.02289814 29.85490842 2.14550781 33.38452148 C2.28697615 37.45808862 2.42480832 41.5317722 2.5625 45.60546875 C2.60624756 46.8507988 2.64999512 48.09612885 2.69506836 49.37919617 C2.9578987 57.25766125 3.03848841 65.11709227 3 73 C7.62 73 12.24 73 17 73 C17 53.2 17 33.4 17 13 C21.29 13 25.58 13 30 13 C30.02505615 14.1238208 30.0501123 15.2476416 30.07592773 16.40551758 C30.17096019 20.62322048 30.27093636 24.84079486 30.37231445 29.05834961 C30.41530463 30.87472502 30.45700038 32.69113159 30.49731445 34.50756836 C30.79917193 48.77982661 30.79917193 48.77982661 32 63 C28.39861883 57.59792824 28.80445967 51.84223549 28.68359375 45.54296875 C28.66281265 44.64000565 28.64203156 43.73704254 28.62062073 42.80671692 C28.5554472 39.93371903 28.49639045 37.06063286 28.4375 34.1875 C28.39428414 32.23501706 28.35066888 30.28254292 28.30664062 28.33007812 C28.19979893 23.55347497 28.09844143 18.77678336 28 14 C25.03 14 22.06 14 19 14 C19 33.8 19 53.6 19 74 C13.06 74 7.12 74 1 74 C-0.47123364 71.05753273 -0.11924765 68.44814978 -0.11352539 65.16357422 C-0.11374443 64.10975052 -0.11374443 64.10975052 -0.1139679 63.03463745 C-0.11327014 60.70795627 -0.10548419 58.38135473 -0.09765625 56.0546875 C-0.09579158 54.44328861 -0.09436791 52.83188916 -0.09336853 51.2204895 C-0.0895472 46.97571248 -0.07972018 42.73096958 -0.06866455 38.48620605 C-0.05844218 34.15617332 -0.05386914 29.82613507 -0.04882812 25.49609375 C-0.03809758 16.99738016 -0.02102575 8.49869432 0 0 Z " fill="#C1C1C2" transform="translate(297,83)"/>
<path d="M0 0 C2.1640625 -0.29296875 2.1640625 -0.29296875 4.625 -0.1875 C5.44226563 -0.16042969 6.25953125 -0.13335938 7.1015625 -0.10546875 C8.04128906 -0.05326172 8.04128906 -0.05326172 9 0 C9.33 0.66 9.66 1.32 10 2 C8.8553125 1.9071875 8.8553125 1.9071875 7.6875 1.8125 C5.01318243 1.7540277 5.01318243 1.7540277 3.33984375 3.25 C1.66336308 5.43968903 1.71129826 6.4671622 1.875 9.1875 C2.03370795 13.58803857 1.63348982 17.64475746 1 22 C1.66 22 2.32 22 3 22 C2.9297612 22.65969284 2.8595224 23.31938568 2.78715515 23.99906921 C2.10194007 30.87718347 1.83974956 37.67247042 1.83203125 44.58203125 C1.82870285 45.63984299 1.82537445 46.69765472 1.82194519 47.78752136 C1.81692084 50.00344411 1.81453546 52.2193743 1.81469727 54.43530273 C1.81249452 57.82092569 1.79424694 61.20623067 1.77539062 64.59179688 C1.77245897 66.75520723 1.77047265 68.91861911 1.76953125 71.08203125 C1.76234573 72.08837112 1.75516022 73.094711 1.74775696 74.13154602 C1.76412086 79.15810293 1.99804691 83.29241003 4 88 C1.55078125 87.2109375 1.55078125 87.2109375 -1 85 C-1.89867203 81.25105573 -1.79395238 77.46516368 -1.8125 73.625 C-1.83546143 72.41086426 -1.85842285 71.19672852 -1.88208008 69.94580078 C-1.94616498 66.22029765 -1.96823734 62.49526924 -1.98498535 58.76928711 C-2.00176277 55.67487672 -2.02925459 52.58065364 -2.05761719 49.48632812 C-2.11045474 43.49635039 -2.14716009 37.5064536 -2.17221069 31.51629639 C-2.18241249 29.0866394 -2.19480647 26.65699064 -2.2093811 24.22735596 C-2.22711154 20.77389018 -2.23088161 17.32069316 -2.23046875 13.8671875 C-2.23758881 12.81525208 -2.24470886 11.76331665 -2.25204468 10.67950439 C-2.24903351 9.71131775 -2.24602234 8.7431311 -2.24291992 7.74560547 C-2.24434494 6.89819794 -2.24576996 6.05079041 -2.24723816 5.17770386 C-2 3 -2 3 0 0 Z " fill="#C76C62" transform="translate(5,5)"/>
<path d="M0 0 C5.52993689 4.33427486 6.70875184 9.23587324 8 16 C8.35851128 20.15941869 8.35275003 24.2769128 8.29296875 28.44921875 C8.28872391 29.58784866 8.28447906 30.72647858 8.28010559 31.89961243 C8.26346525 35.49582719 8.22584042 39.09145787 8.1875 42.6875 C8.17243425 45.14256997 8.15874917 47.59764882 8.14648438 50.05273438 C8.11360988 56.03535171 8.06355888 62.0176341 8 68 C5.3753399 68.19430855 2.75053235 68.38073238 0.125 68.5625 C-0.99455078 68.64661133 -0.99455078 68.64661133 -2.13671875 68.73242188 C-7.7734375 69.11328125 -7.7734375 69.11328125 -10 68 C-10 52.82 -10 37.64 -10 22 C-9.34 22 -8.68 22 -8 22 C-8 36.85 -8 51.7 -8 67 C-3.38 67 1.24 67 6 67 C5.93110314 59.27670009 5.84312386 51.55394048 5.73754883 43.83105469 C5.70431962 41.20448809 5.6762815 38.57785043 5.65356445 35.95117188 C5.61998272 32.17286939 5.56766247 28.39521695 5.51171875 24.6171875 C5.50532883 23.44509735 5.4989389 22.2730072 5.49235535 21.06539917 C5.38804963 15.26530059 5.20154256 11.02860619 2 6 C1.30028027 4.01132287 0.62335603 2.01391949 0 0 Z " fill="#969596" transform="translate(286,89)"/>
<path d="M0 0 C5.94 0 11.88 0 18 0 C18.0501123 2.27084473 18.10022461 4.54168945 18.15185547 6.88134766 C18.31898356 14.39331726 18.49633151 21.9050207 18.67867851 29.41663551 C18.7888972 33.96988155 18.8956974 38.52315378 18.99462891 43.07666016 C19.09027168 47.47296117 19.19496759 51.8689627 19.3058815 56.26490402 C19.34656823 57.94010308 19.38402019 59.61538401 19.41814804 61.29072952 C19.46659441 63.64154806 19.5266489 65.99180963 19.58935547 68.34228516 C19.60086639 69.03136963 19.61237732 69.7204541 19.62423706 70.43041992 C19.75088223 74.62045959 20.49040868 78.09346495 22 82 C19 81 19 81 17.82669067 79.4019165 C16.69764833 76.12152937 16.73756649 72.99551405 16.77294922 69.56933594 C16.77265717 68.82748047 16.77236511 68.085625 16.77206421 67.32128906 C16.77345467 64.87553099 16.78900235 62.43007968 16.8046875 59.984375 C16.80841864 58.28615485 16.81126514 56.58793255 16.81326294 54.88970947 C16.82089143 50.42462193 16.84053319 45.95966494 16.8626709 41.49462891 C16.88314621 36.9365414 16.89226826 32.37843276 16.90234375 27.8203125 C16.92377984 18.88014181 16.9589556 9.9401022 17 1 C11.72 1 6.44 1 1 1 C1.0404147 11.14513539 1.09762118 21.28980223 1.18390274 31.43465328 C1.22331139 36.14598362 1.25553218 40.85712891 1.27099609 45.56860352 C1.28620639 50.12055654 1.32072899 54.67200059 1.36830902 59.22372627 C1.38307788 60.95508955 1.39103842 62.68652552 1.39188385 64.41795158 C1.20329692 76.3213787 1.20329692 76.3213787 5.14642334 87.37672424 C6 89 6 89 6 92 C0.91971603 86.07300203 -0.30126796 81.63359497 -0.22705078 73.9050293 C-0.22734283 73.10450638 -0.22763489 72.30398346 -0.22793579 71.47920227 C-0.22654705 68.84409592 -0.21100739 66.20927546 -0.1953125 63.57421875 C-0.19158075 61.74290623 -0.18873454 59.91159172 -0.18673706 58.08027649 C-0.17911337 53.26832534 -0.15947573 48.45649559 -0.1373291 43.64459229 C-0.11684344 38.73117718 -0.10772953 33.8177424 -0.09765625 28.90429688 C-0.07622864 19.26946943 -0.04105678 9.63476382 0 0 Z " fill="#DBDBDB" transform="translate(443,58)"/>
<path d="M0 0 C4.26457617 2.84305078 4.86112013 6.13473052 6 11 C6.36327177 14.07639858 6.38231081 17.09668187 6.34057617 20.19165039 C6.34101425 21.06103241 6.34145233 21.93041443 6.34190369 22.82614136 C6.33983284 25.66688406 6.31658323 28.50701813 6.29296875 31.34765625 C6.28736672 33.33019183 6.28309949 35.31273159 6.28010559 37.29527283 C6.26870463 42.48863385 6.23927866 47.68173928 6.20599365 52.875 C6.17518999 58.18420963 6.16157832 63.49346095 6.14648438 68.80273438 C6.11440413 79.20193461 6.0632657 89.60094597 6 100 C3.525 100.495 3.525 100.495 1 101 C1.99 100.505 1.99 100.505 3 100 C3.04649874 89.23775667 3.08195792 78.47553754 3.10362434 67.71321392 C3.11402717 62.7149416 3.12812193 57.71673841 3.15087891 52.71850586 C3.17273276 47.88797648 3.18459491 43.05751328 3.18975449 38.22693825 C3.19342784 36.39111096 3.20060052 34.55528698 3.21146011 32.71948814 C3.26515646 23.2593278 3.2122353 14.25768907 1 5 C0.66196656 3.33428025 0.32740132 1.6678421 0 0 Z " fill="#E69F4D" transform="translate(124,18)"/>
<path d="M0 0 C5.61 0 11.22 0 17 0 C17.66 1.65 18.32 3.3 19 5 C20.65 3.68 22.3 2.36 24 1 C24.66 1.33 25.32 1.66 26 2 C23.36 3.98 20.72 5.96 18 8 C17.34 7.67 16.68 7.34 16 7 C16 5.02 16 3.04 16 1 C11.38 1 6.76 1 2 1 C2 25.09 2 49.18 2 74 C6.95 74 11.9 74 17 74 C17 74.33 17 74.66 17 75 C11.39 75 5.78 75 0 75 C0 50.25 0 25.5 0 0 Z " fill="#A8A8A8" transform="translate(224,83)"/>
<path d="M0 0 C0.33 0 0.66 0 1 0 C1 9.57 1 19.14 1 29 C2.32 29.66 3.64 30.32 5 31 C7 32 7 32 9 33 C9 33.66 9 34.32 9 35 C16.89516792 34.00668169 23.36839067 31.42909661 30 27 C30.33 26.34 30.66 25.68 31 25 C33.64860427 24.40644386 36.29197322 24.25790731 39 24 C37.65264491 27.25483224 36.55083022 28.59465609 33.375 30.10546875 C32.66859375 30.44900391 31.9621875 30.79253906 31.234375 31.14648438 C30.49703125 31.49001953 29.7596875 31.83355469 29 32.1875 C28.26265625 32.54263672 27.5253125 32.89777344 26.765625 33.26367188 C25.40106764 33.91980484 24.03410725 34.57097967 22.6640625 35.21557617 C21.43525311 35.79482567 20.21507283 36.39246358 19 37 C16.73581012 37.22670596 14.46165392 37.35891667 12.1875 37.4375 C10.96417969 37.49808594 9.74085937 37.55867188 8.48046875 37.62109375 C4.59289212 36.92735112 3.41396497 35.83230897 1.02403259 32.77009583 C-0.71328139 29.76705446 -0.55877882 27.04489481 -0.48828125 23.6328125 C-0.48120651 22.95322479 -0.47413177 22.27363708 -0.46684265 21.57345581 C-0.43906147 19.42280539 -0.37636888 17.27485043 -0.3125 15.125 C-0.28739541 13.65889203 -0.26458602 12.19274285 -0.24414062 10.7265625 C-0.18929288 7.15017977 -0.1031413 3.57535336 0 0 Z " fill="#DF9F72" transform="translate(3,61)"/>
<path d="M0 0 C2.45840605 -0.02691685 4.91651882 -0.04679802 7.375 -0.0625 C8.07367188 -0.07087891 8.77234375 -0.07925781 9.4921875 -0.08789062 C14.7734375 -0.11328125 14.7734375 -0.11328125 17 1 C17.00879936 1.91962021 17.00879936 1.91962021 17.01777649 2.8578186 C17.08180457 9.24975204 17.16624878 15.64118638 17.26245117 22.03271484 C17.29566646 24.41676241 17.32370892 26.80088797 17.34643555 29.18505859 C17.38004318 32.61589739 17.43236407 36.04602363 17.48828125 39.4765625 C17.49467117 40.53928375 17.5010611 41.602005 17.50764465 42.69692993 C17.61616714 48.18268499 17.85388603 52.29053628 21 57 C25.04998245 60.15190532 29.94241344 61.49424134 35 62 C35 62.33 35 62.66 35 63 C28.40288662 63.71707754 23.52789447 61.58757319 18 58 C13.68736922 51.53105384 14.8584309 42.18056567 14.90234375 34.6171875 C14.9037587 33.67690704 14.90517365 32.73662659 14.90663147 31.76785278 C14.91216992 28.80353432 14.92471038 25.83929512 14.9375 22.875 C14.94252297 20.84895943 14.94708447 18.82291767 14.95117188 16.796875 C14.96211908 11.86455341 14.97934019 6.93229008 15 2 C14.01 2.33 13.02 2.66 12 3 C9.66700175 3.03954234 7.33291811 3.04401732 5 3 C5 2.67 5 2.34 5 2 C3.35 1.67 1.7 1.34 0 1 C0 0.67 0 0.34 0 0 Z " fill="#CDCDCD" transform="translate(152,83)"/>
<path d="M0 0 C4.92127034 -0.16682272 8.50343896 -0.24828052 13 2 C13 2.66 13 3.32 13 4 C13.53367187 4.15855469 14.06734375 4.31710938 14.6171875 4.48046875 C19.94235052 6.1480371 24.75643314 8.29789224 29.703125 10.87109375 C32.13561119 12.13322771 32.13561119 12.13322771 35.4375 13.125 C38.16829933 14.05746806 39.08796302 14.92169893 41 17 C42.64605826 18.03357147 44.30963442 19.04060332 46 20 C42.06329512 21.31223496 39.87511856 20.24296256 36 19 C36 18.34 36 17.68 36 17 C35.37996094 16.87625 34.75992188 16.7525 34.12109375 16.625 C25.86673499 14.70258748 19.09255749 11.07089587 11.76855469 6.97363281 C7.91365022 4.85141318 3.95170263 2.93400976 0 1 C0 0.67 0 0.34 0 0 Z " fill="#ECB04E" transform="translate(73,97)"/>
<path d="M0 0 C0.66 0.33 1.32 0.66 2 1 C-1.75 4 -1.75 4 -4 4 C-3.67 13.24 -3.34 22.48 -3 32 C0.66763927 33.46813358 0.66763927 33.46813358 4.3515625 34.89453125 C10.54713494 37.39617991 10.54713494 37.39617991 13.0625 40.75 C13.5265625 41.86375 13.5265625 41.86375 14 43 C10.09542786 41.89871042 7.01878001 40.40860878 3.625 38.25 C0.18490207 36.24668321 -1.67842172 35.69070115 -5.5625 36.6875 C-6.696875 37.120625 -7.83125 37.55375 -9 38 C-9.1875 35.625 -9.1875 35.625 -9 33 C-8.01 32.34 -7.02 31.68 -6 31 C-5.63583953 28.56306689 -5.63583953 28.56306689 -5.8125 25.875 C-5.83957031 24.96492188 -5.86664063 24.05484375 -5.89453125 23.1171875 C-5.94673828 22.06917969 -5.94673828 22.06917969 -6 21 C-6.33 21 -6.66 21 -7 21 C-7.02698422 18.56242587 -7.04683099 16.12515085 -7.0625 13.6875 C-7.07087891 12.99720703 -7.07925781 12.30691406 -7.08789062 11.59570312 C-7.10307906 8.4516975 -7.00193327 6.00579981 -6 3 C-3.0625 1.25 -3.0625 1.25 0 0 Z " fill="#F9A659" transform="translate(50,49)"/>
<path d="M0 0 C4.69992188 2.10569977 10.03564039 4.46484375 15.26953125 4.46484375 C15.26953125 5.12484375 15.26953125 5.78484375 15.26953125 6.46484375 C9.88282145 8.26041368 5.52544312 7.89895759 0.41796875 5.44921875 C-2.41067511 4.15318556 -5.31335153 3.10874647 -8.23046875 2.02734375 C-13.04201611 0.19595894 -17.37537847 -1.80056468 -21.73046875 -4.53515625 C-15.30888861 -9.35134136 -6.09291536 -2.9010505 0 0 Z " fill="#EACE80" transform="translate(67.73046875,25.53515625)"/>
<path d="M0 0 C-0.53367187 0.35191406 -1.06734375 0.70382813 -1.6171875 1.06640625 C-3.19645418 2.11287535 -4.7688517 3.16975163 -6.3359375 4.234375 C-8.12239114 5.41835894 -9.9417795 6.55398794 -11.7890625 7.640625 C-16.66558039 10.49240468 -16.66558039 10.49240468 -19.8515625 14.953125 C-20.16353565 17.35977504 -20.12023004 19.57418214 -20 22 C-19.99464544 24.47916088 -19.99493014 26.95833852 -20 29.4375 C-19.979375 30.63246094 -19.95875 31.82742187 -19.9375 33.05859375 C-20 36 -20 36 -21 38 C-21.66 38 -22.32 38 -23 38 C-23 28.76 -23 19.52 -23 10 C-19 8 -19 8 -16 8 C-16 7.34 -16 6.68 -16 6 C-14.20703125 4.52734375 -14.20703125 4.52734375 -11.8125 2.9375 C-11.03519531 2.41027344 -10.25789063 1.88304687 -9.45703125 1.33984375 C-6.21771531 -0.42658768 -3.44060163 -1.72030082 0 0 Z " fill="#E2662E" transform="translate(69,43)"/>
<path d="M0 0 C0 3 0 3 -1.4375 5.375 C-3.00282114 8.00473952 -3.57112625 9.99788375 -4 13 C-3.32493408 12.83701416 -2.64986816 12.67402832 -1.9543457 12.50610352 C1.50333581 11.91377447 4.76098849 11.8879053 8.26953125 11.90234375 C8.95053391 11.9037587 9.63153656 11.90517365 10.33317566 11.90663147 C12.49299647 11.91219702 14.65271089 11.92474297 16.8125 11.9375 C18.28320162 11.94251946 19.75390488 11.94708159 21.22460938 11.95117188 C24.8164404 11.96215512 28.4082098 11.97939578 32 12 C31.34 9.36 30.68 6.72 30 4 C32.33936818 6.12669835 33.80653848 8.06224856 35 11 C35 11.99 35 12.98 35 14 C21.33207359 15.14069132 7.70719411 15.10657507 -6 15 C-6.59732819 12.23735711 -7 9.83967231 -7 7 C-6.34 6.67 -5.68 6.34 -5 6 C-4.67 5.01 -4.34 4.02 -4 3 C-5.32 3.33 -6.64 3.66 -8 4 C-7.67 3.01 -7.34 2.02 -7 1 C-3.535 0.505 -3.535 0.505 0 0 Z " fill="#8C8C8E" transform="translate(390,98)"/>
<path d="M0 0 C0.928125 0.0825 1.85625 0.165 2.8125 0.25 C3.1425 0.91 3.4725 1.57 3.8125 2.25 C2.6678125 2.1571875 2.6678125 2.1571875 1.5 2.0625 C-1.17431757 2.0040277 -1.17431757 2.0040277 -2.84765625 3.5 C-4.52413692 5.68968903 -4.47620174 6.7171622 -4.3125 9.4375 C-4.15379205 13.83803857 -4.55401018 17.89475746 -5.1875 22.25 C-4.5275 22.25 -3.8675 22.25 -3.1875 22.25 C-3.2577388 22.90969284 -3.3279776 23.56938568 -3.40034485 24.24906921 C-4.08555993 31.12718347 -4.34775044 37.92247042 -4.35546875 44.83203125 C-4.35879715 45.88984299 -4.36212555 46.94765472 -4.36555481 48.03752136 C-4.37057916 50.25344411 -4.37296454 52.4693743 -4.37280273 54.68530273 C-4.37500548 58.07092569 -4.39325306 61.45623067 -4.41210938 64.84179688 C-4.41504103 67.00520723 -4.41702735 69.16861911 -4.41796875 71.33203125 C-4.42515427 72.33837112 -4.43233978 73.344711 -4.43974304 74.38154602 C-4.42337914 79.40810293 -4.18945309 83.54241003 -2.1875 88.25 C-5.27955975 85.8679418 -6.12479427 84.68678483 -6.68870544 80.75878906 C-6.70937542 79.34455208 -6.7080063 77.92988812 -6.68920898 76.515625 C-6.69461197 75.74118042 -6.70001495 74.96673584 -6.70558167 74.16882324 C-6.71807588 71.61215852 -6.70157414 69.05661842 -6.68359375 66.5 C-6.68374872 64.72167909 -6.68523742 62.94335783 -6.68800354 61.16503906 C-6.68938784 57.43930111 -6.67682446 53.71394798 -6.65405273 49.98828125 C-6.62566792 45.2131205 -6.62840496 40.43859917 -6.64114285 35.66339111 C-6.64809861 31.99164369 -6.64031194 28.32004399 -6.62788582 24.64831543 C-6.62337031 22.88766039 -6.62303539 21.12698949 -6.62695122 19.36633301 C-6.62986246 16.90534978 -6.61336137 14.44524696 -6.59155273 11.984375 C-6.59605438 11.2569812 -6.60055603 10.5295874 -6.60519409 9.78015137 C-6.55974626 6.69274835 -6.33431983 4.52323427 -4.86146545 1.78222656 C-3.1875 0.25 -3.1875 0.25 0 0 Z " fill="#E36253" transform="translate(11.1875,4.75)"/>
<path d="M0 0 C0.66 0.33 1.32 0.66 2 1 C1.38125 1.7425 0.7625 2.485 0.125 3.25 C-2.92724191 7.19996012 -4.23969483 9.84733925 -4.31884766 14.86035156 C-4.33871735 15.82104553 -4.35858704 16.7817395 -4.37905884 17.77154541 C-4.39061005 18.80084167 -4.40216125 19.83013794 -4.4140625 20.890625 C-4.43342865 21.95037537 -4.4527948 23.01012573 -4.4727478 24.10198975 C-4.53249554 27.48457813 -4.5789102 30.86720063 -4.625 34.25 C-4.66318416 36.54428562 -4.70223615 38.83855697 -4.7421875 41.1328125 C-4.83819315 46.75508162 -4.92325483 52.37743677 -5 58 C-5.66 58 -6.32 58 -7 58 C-7.07645954 51.47134965 -7.12877088 44.94281604 -7.16479492 38.41381836 C-7.17982277 36.1956755 -7.20025077 33.97756207 -7.22631836 31.75952148 C-7.26296624 28.55965892 -7.27978688 25.36019139 -7.29296875 22.16015625 C-7.30845261 21.17854019 -7.32393646 20.19692413 -7.33988953 19.18556213 C-7.34131673 13.26307173 -7.06278166 7.23490264 -4 2 C-2.01676941 0.69203186 -2.01676941 0.69203186 0 0 Z " fill="#B5B5B5" transform="translate(248,99)"/>
<path d="M0 0 C2.91101362 1.69809128 3.36152916 2.83605631 5 6 C5.89598701 10.17855762 5.47020804 13.21072223 3.25 16.9375 C1.04249331 18.9610478 -0.06829636 19.6858889 -3 20 C-3 19.34 -3 18.68 -3 18 C-2.34 17.67 -1.68 17.34 -1 17 C0.9022844 12.56133639 1.19188324 8.79708091 1 4 C-0.65 4.33 -2.3 4.66 -4 5 C-4 3.68 -4 2.36 -4 1 C-5.48034764 1.47550561 -6.95925021 1.95551216 -8.4375 2.4375 C-9.67306641 2.83775391 -9.67306641 2.83775391 -10.93359375 3.24609375 C-12.96219588 3.82155494 -12.96219588 3.82155494 -14 5 C-14.19989763 6.99990516 -14.19989763 6.99990516 -14.1875 9.3125 C-14.20167969 10.09238281 -14.21585937 10.87226562 -14.23046875 11.67578125 C-13.97984413 14.2032668 -13.26373772 15.81718031 -12 18 C-13.9375 17.5 -13.9375 17.5 -16 16 C-17.12447848 11.10048662 -17.67937277 7.46562129 -15 3 C-10.55085326 -1.09002279 -5.75759618 -1.03057565 0 0 Z " fill="#989898" transform="translate(312,51)"/>
<path d="M0 0 C3.35693737 2.23795825 3.91970563 3.2189697 5 7 C4.625 9.3125 4.625 9.3125 4 11 C1 6.25 1 6.25 1 4 C-6.6715475 3.59935825 -13.81721267 4.05165993 -21 7 C-22.02459317 7.97478656 -23.03074795 8.97016969 -24 10 C-24.66 10 -25.32 10 -26 10 C-26 9.34 -26 8.68 -26 8 C-18.22441149 0.71038578 -10.56938023 -1.2434565 0 0 Z " fill="#EED574" transform="translate(123,12)"/>
<path d="M0 0 C6.75 1.875 6.75 1.875 9 3 C9 3.66 9 4.32 9 5 C9.969375 4.979375 10.93875 4.95875 11.9375 4.9375 C15 5 15 5 16 6 C18.34987262 6.23527773 20.70556039 6.41386417 23.0625 6.5625 C24.99802734 6.68818359 24.99802734 6.68818359 26.97265625 6.81640625 C28.47119141 6.90728516 28.47119141 6.90728516 30 7 C30 7.99 30 8.98 30 10 C28.68 10.33 27.36 10.66 26 11 C26 11.66 26 12.32 26 13 C16.36186914 10.98433321 8.36844365 5.95254047 0 1 C0 0.67 0 0.34 0 0 Z " fill="#EFC254" transform="translate(100,111)"/>
<path d="M0 0 C2.46527501 3.69791251 2.27962224 5.66744278 2.34375 10.08203125 C2.3583728 10.7738298 2.37299561 11.46562836 2.38806152 12.1783905 C2.4345181 14.3897016 2.46871889 16.60092534 2.5 18.8125 C2.54135304 21.71516545 2.59515627 24.61722166 2.65625 27.51953125 C2.67494141 28.80964111 2.69363281 30.09975098 2.71289062 31.42895508 C2.99495397 34.93723785 3.73627308 37.72938141 5 41 C2 40 2 40 0.82470703 38.45410156 C-0.36866072 34.90296698 -0.24514013 31.43581464 -0.1953125 27.734375 C-0.1924826 26.94097717 -0.18965271 26.14757935 -0.18673706 25.33013916 C-0.17556779 22.80327083 -0.15046944 20.27676068 -0.125 17.75 C-0.11496598 16.0338593 -0.10584087 14.31771302 -0.09765625 12.6015625 C-0.07563914 8.40090426 -0.04113187 4.2005128 0 0 Z " fill="#C7C7C7" transform="translate(460,99)"/>
<path d="M0 0 C4.66101012 4.17037748 6.70993021 7.56572234 7.24050903 13.84750366 C7.23606781 14.82901398 7.23162659 15.81052429 7.22705078 16.82177734 C7.22682419 18.50284073 7.22682419 18.50284073 7.22659302 20.21786499 C7.21627045 21.41182892 7.20594788 22.60579285 7.1953125 23.8359375 C7.1924826 25.07042633 7.18965271 26.30491516 7.18673706 27.57681274 C7.17556522 31.50964149 7.15046564 35.44224037 7.125 39.375 C7.11383825 42.04556959 7.10584119 44.71613701 7.09765625 47.38671875 C7.07563565 53.92455725 7.04218759 60.4622622 7 67 C6.67 67 6.34 67 6 67 C5.99413376 66.32427948 5.98826752 65.64855896 5.98222351 64.95236206 C5.91822915 57.91165192 5.8337932 50.8713963 5.73754883 43.83105469 C5.70431962 41.20448809 5.6762815 38.57785043 5.65356445 35.95117188 C5.61998272 32.17286939 5.56766247 28.39521695 5.51171875 24.6171875 C5.50532883 23.44509735 5.4989389 22.2730072 5.49235535 21.06539917 C5.38804963 15.26530059 5.20154256 11.02860619 2 6 C1.30028027 4.01132287 0.62335603 2.01391949 0 0 Z " fill="#414141" transform="translate(286,89)"/>
<path d="M0 0 C0.33 0 0.66 0 1 0 C0.98952637 0.57967529 0.97905273 1.15935059 0.96826172 1.7565918 C0.92651385 4.40018321 0.90061462 7.04370505 0.875 9.6875 C0.84986328 11.05551758 0.84986328 11.05551758 0.82421875 12.45117188 C0.79063831 17.06848227 0.76443815 20.81932331 3 25 C3.66 24.67 4.32 24.34 5 24 C4.95359375 24.65226562 4.9071875 25.30453125 4.859375 25.9765625 C4.60733435 32.07954686 5.03942021 35.2968115 9 40 C8.67 40.66 8.34 41.32 8 42 C0.46257669 33.38580193 -1.18961347 25.25562567 -1.125 13.9375 C-1.12886719 13.25623047 -1.13273437 12.57496094 -1.13671875 11.87304688 C-1.12891571 7.81156646 -0.78313127 3.98402497 0 0 Z " fill="#B1B1B1" transform="translate(367,105)"/>
<path d="M0 0 C4.92127034 -0.16682272 8.50343896 -0.24828052 13 2 C13 2.66 13 3.32 13 4 C13.56847656 4.17015625 14.13695313 4.3403125 14.72265625 4.515625 C19.9322114 6.15067737 24.35363141 8.13309172 29 11 C27 12 27 12 24.86328125 11.29296875 C24.02152344 10.92816406 23.17976563 10.56335938 22.3125 10.1875 C19.35381885 8.94307617 16.60924754 7.89533416 13.5 7.0625 C8.70392471 5.60654857 4.42342324 3.33186497 0 1 C0 0.67 0 0.34 0 0 Z " fill="#E9964B" transform="translate(73,97)"/>
<path d="M0 0 C0.33 0 0.66 0 1 0 C1 9.57 1 19.14 1 29 C2.32 29.66 3.64 30.32 5 31 C7 32 7 32 9 33 C9 33.66 9 34.32 9 35 C11.31 35 13.62 35 16 35 C16 35.33 16 35.66 16 36 C5.24896324 36.56364659 5.24896324 36.56364659 1 33 C-0.48679725 30.02640551 -0.11112605 27.33700821 -0.09765625 24.0234375 C-0.09553383 22.99556625 -0.09553383 22.99556625 -0.09336853 21.94692993 C-0.08776675 19.75624239 -0.07521406 17.5656567 -0.0625 15.375 C-0.05748522 13.89062648 -0.05292228 12.40625135 -0.04882812 10.921875 C-0.03779677 7.28121685 -0.02053099 3.64061836 0 0 Z " fill="#D38A7D" transform="translate(3,61)"/>
<path d="M0 0 C0.6987693 1.76641683 1.38366583 3.53832664 2.0625 5.3125 C2.44535156 6.29863281 2.82820313 7.28476563 3.22265625 8.30078125 C4 11 4 11 3 14 C-1.06277395 15.80567731 -2.58852494 16.10286876 -7 15 C-4.03 14.34 -1.06 13.68 2 13 C1.505 11.906875 1.01 10.81375 0.5 9.6875 C-1 6 -1 6 -1 3 C-6.94 3 -12.88 3 -19 3 C-19 2.34 -19 1.68 -19 1 C-18.32453125 1.01160156 -17.6490625 1.02320313 -16.953125 1.03515625 C-16.06109375 1.04417969 -15.1690625 1.05320313 -14.25 1.0625 C-13.36828125 1.07410156 -12.4865625 1.08570313 -11.578125 1.09765625 C-9.07112876 1.09118213 -9.07112876 1.09118213 -6.984375 0.49609375 C-4.61069406 -0.09732648 -2.43697383 -0.06769372 0 0 Z " fill="#9D9D9D" transform="translate(370,142)"/>
<path d="M0 0 C0.66 0.33 1.32 0.66 2 1 C3.4981501 1.67081348 4.99839601 2.33695408 6.5 3 C8.6886977 3.96643794 10.86002343 4.93001171 13 6 C13 7.32 13 8.64 13 10 C13.61875 10.144375 14.2375 10.28875 14.875 10.4375 C17 11 17 11 19 12 C19 12.66 19 13.32 19 14 C19.66 14 20.32 14 21 14 C21.33 14.99 21.66 15.98 22 17 C20.32700041 16.34938905 18.66140763 15.67966676 17 15 C16.29875 14.731875 15.5975 14.46375 14.875 14.1875 C12.35801399 12.59340886 11.46973196 10.55605558 10 8 C6.97744638 5.98496425 4.43880802 5.10041857 1 4 C-0.67163195 3.34588315 -2.34015202 2.68346682 -4 2 C-2.125 0.9375 -2.125 0.9375 0 0 Z " fill="#DF6F3D" transform="translate(51,80)"/>
<path d="M0 0 C6.41911589 2.8498661 10.3139368 8.64567538 13.25390625 14.8671875 C14.52397092 18.49784356 14.82300457 22.17689882 15 26 C14.01 25.34 13.02 24.68 12 24 C11.34 24 10.68 24 10 24 C10.33 20.37 10.66 16.74 11 13 C10.34 13 9.68 13 9 13 C7.59765625 11.171875 7.59765625 11.171875 6.0625 8.75 C4.1404588 5.74158768 2.17570215 2.83166011 0 0 Z " fill="#888888" transform="translate(425,85)"/>
<path d="M0 0 C5.74411611 5.55882204 5.88499582 10.29030361 6.04296875 18.13330078 C6.08490647 23.08929116 6.05174267 28.04420206 6 33 C5.34 32.67 4.68 32.34 4 32 C3.95101562 30.81664063 3.90203125 29.63328125 3.8515625 28.4140625 C3.47290145 20.127346 3.0743513 12.07052303 1 4 C0.814375 3.25492188 0.62875 2.50984375 0.4375 1.7421875 C0.293125 1.16726562 0.14875 0.59234375 0 0 Z " fill="#F6E2A5" transform="translate(126,15)"/>
<path d="M0 0 C2.7920453 1.14491793 5.58364888 2.29089194 8.375 3.4375 C9.1690625 3.76298828 9.963125 4.08847656 10.78125 4.42382812 C11.54179688 4.73642578 12.30234375 5.04902344 13.0859375 5.37109375 C13.7876709 5.65911865 14.4894043 5.94714355 15.21240234 6.24389648 C16.49409959 6.78601836 17.75528511 7.37764255 19 8 C19 8.66 19 9.32 19 10 C12.62792049 9.7110168 8.24878761 8.71789122 3 5 C2.67 4.01 2.34 3.02 2 2 C1.34 2 0.68 2 0 2 C0 1.34 0 0.68 0 0 Z " fill="#E4AC7C" transform="translate(31,10)"/>
<path d="M0 0 C3.43964427 2.29309618 4.21549176 4.12784885 5.4375 8.00390625 C6.61137266 14.25640854 6.20981742 20.66662237 6 27 C5.67 27 5.34 27 5 27 C4.90912109 25.93458984 4.90912109 25.93458984 4.81640625 24.84765625 C4.73261719 23.92855469 4.64882812 23.00945313 4.5625 22.0625 C4.48128906 21.14597656 4.40007812 20.22945312 4.31640625 19.28515625 C4.23955024 17.03840268 4.23955024 17.03840268 3 16 C2.62593337 14.25825224 2.30048155 12.50593905 2 10.75 C1.37828979 7.15573785 0.73043407 3.57390955 0 0 Z " fill="#E9BD64" transform="translate(124,18)"/>
<path d="M0 0 C0.99 0.33 1.98 0.66 3 1 C3.48695652 8.1826087 3.48695652 8.1826087 1.25 11.9375 C-0.95750669 13.9610478 -2.06829636 14.6858889 -5 15 C-5 14.34 -5 13.68 -5 13 C-4.34 12.67 -3.68 12.34 -3 12 C-2.08514427 9.19521805 -2.08514427 9.19521805 -1.375 5.9375 C-1.11460937 4.83277344 -0.85421875 3.72804687 -0.5859375 2.58984375 C-0.39257812 1.73519531 -0.19921875 0.88054688 0 0 Z " fill="#7D7D7E" transform="translate(314,56)"/>
<path d="M0 0 C1.65 0 3.3 0 5 0 C2.32430404 3.02676246 -0.95587055 4.98715003 -4.375 7.0625 C-5.49648437 7.75472656 -6.61796875 8.44695313 -7.7734375 9.16015625 C-10.4877945 10.70793125 -13.0691758 11.94073208 -16 13 C-16 12.34 -16 11.68 -16 11 C-14.34467377 9.98133771 -12.67739862 8.98189187 -11 8 C-10.67 7.34 -10.34 6.68 -10 6 C-8.68 6 -7.36 6 -6 6 C-6 5.34 -6 4.68 -6 4 C-5.01 4 -4.02 4 -3 4 C-3 3.34 -3 2.68 -3 2 C-2.01 2 -1.02 2 0 2 C0 1.34 0 0.68 0 0 Z " fill="#FBB43E" transform="translate(73,33)"/>
<path d="M0 0 C4.15989972 0.61174996 7.25956343 2.12978171 11 4 C12.11375 4.309375 13.2275 4.61875 14.375 4.9375 C18.55288188 6.16205159 22.17487241 7.95330836 26 10 C22.8216756 11.05236378 21.14692031 10.98251838 18.06640625 9.70703125 C17.33486328 9.40603516 16.60332031 9.10503906 15.84960938 8.79492188 C15.09486328 8.47072266 14.34011719 8.14652344 13.5625 7.8125 C12.81162109 7.50763672 12.06074219 7.20277344 11.28710938 6.88867188 C6.98422199 5.08350276 3.51393826 3.1506683 0 0 Z " fill="#F1BA55" transform="translate(46,20)"/>
<path d="M0 0 C0.99 0 1.98 0 3 0 C3.33 0.66 3.66 1.32 4 2 C5.98 2 7.96 2 10 2 C10.33 2.66 10.66 3.32 11 4 C9.7625 4.28875 8.525 4.5775 7.25 4.875 C4.27551258 5.61334794 1.666144 6.44474933 -1 8 C-1.625 5.6875 -1.625 5.6875 -2 3 C-1.34 2.01 -0.68 1.02 0 0 Z " fill="#4F4F51" transform="translate(392,90)"/>
<path d="M0 0 C0.66 0.33 1.32 0.66 2 1 C1.875 2.8125 1.875 2.8125 1 5 C-3.38397423 7.92264949 -6.80136436 8.31191814 -12 8 C-11.34 7.34 -10.68 6.68 -10 6 C-9.01 6 -8.02 6 -7 6 C-7 5.34 -7 4.68 -7 4 C-1.7265625 0.77734375 -1.7265625 0.77734375 0 0 Z " fill="#E49C50" transform="translate(90,26)"/>
<path d="M0 0 C0.66 0 1.32 0 2 0 C2 2.97 2 5.94 2 9 C6.62 9 11.24 9 16 9 C16 9.33 16 9.66 16 10 C11.05 10 6.1 10 1 10 C0.34 8.35 -0.32 6.7 -1 5 C-1.99 5 -2.98 5 -4 5 C-2.71937515 3.2925002 -1.38232443 1.62626404 0 0 Z " fill="#A6A6A8" transform="translate(203,148)"/>
<path d="M0 0 C6.75 1.875 6.75 1.875 9 3 C9 3.66 9 4.32 9 5 C10.051875 5.1546875 10.051875 5.1546875 11.125 5.3125 C14.42045139 6.10054272 17.05850781 7.32869762 20 9 C20.33 9.66 20.66 10.32 21 11 C15.89545207 10.4462522 12.03424443 7.97407204 7.6875 5.4375 C6.94693359 5.01275391 6.20636719 4.58800781 5.44335938 4.15039062 C3.62531882 3.10648347 1.81216252 2.05407808 0 1 C0 0.67 0 0.34 0 0 Z " fill="#F0D58E" transform="translate(100,111)"/>
<path d="M0 0 C5.71468146 1.30174976 11.46592355 2.95456473 15.0625 7.75 C15.371875 8.4925 15.68125 9.235 16 10 C9.71074602 8.15924274 3.54244914 5.83462211 0 0 Z " fill="#D78B59" transform="translate(48,82)"/>
<path d="M0 0 C0.6875 1.8125 0.6875 1.8125 1 4 C-1.20112209 6.86879579 -3.5280386 7.74510611 -6.9375 8.75 C-7.79214844 9.01296875 -8.64679688 9.2759375 -9.52734375 9.546875 C-12.09097669 10.01667187 -13.56117696 9.83746128 -16 9 C-15.34773438 8.76925781 -14.69546875 8.53851563 -14.0234375 8.30078125 C-8.43708076 6.2161968 -4.33255205 4.10452299 0 0 Z " fill="#8E8E8F" transform="translate(427,134)"/>
<path d="M0 0 C-7.53146548 4.46309065 -14.40858218 4.43995881 -23 4 C-23.33 3.34 -23.66 2.68 -24 2 C-22.75283203 2.03480469 -22.75283203 2.03480469 -21.48046875 2.0703125 C-20.39378906 2.08835937 -19.30710937 2.10640625 -18.1875 2.125 C-17.10855469 2.14820312 -16.02960937 2.17140625 -14.91796875 2.1953125 C-11.80597132 2.23023717 -11.80597132 2.23023717 -9 0 C-5.55625563 -0.97131252 -3.40538196 -0.96160467 0 0 Z " fill="#D8A28B" transform="translate(31,94)"/>
<path d="M0 0 C-0.99 0.33 -1.98 0.66 -3 1 C-3 1.66 -3 2.32 -3 3 C-4.57533086 3.86883706 -6.16064509 4.71959068 -7.75 5.5625 C-8.63171875 6.03816406 -9.5134375 6.51382813 -10.421875 7.00390625 C-13.20701188 8.07998186 -14.26980214 8.06528748 -17 7 C-14.73595458 5.63319847 -12.46498979 4.28155555 -10.1875 2.9375 C-9.54490234 2.54755859 -8.90230469 2.15761719 -8.24023438 1.75585938 C-3.33984375 -1.11328125 -3.33984375 -1.11328125 0 0 Z " fill="#E88223" transform="translate(80,35)"/>
<path d="M0 0 C0.66 0 1.32 0 2 0 C2.33 0.9075 2.66 1.815 3 2.75 C5.61418935 6.99805769 8.39331448 8.34298129 13 10 C16.31583451 10.7783777 16.31583451 10.7783777 19 11 C19 11.33 19 11.66 19 12 C12.40288662 12.71707754 7.52789447 10.58757319 2 7 C0 4 0 4 0 0 Z " fill="#B7B7B7" transform="translate(168,134)"/>
<path d="M0 0 C0.66 0 1.32 0 2 0 C2 0.66 2 1.32 2 2 C-1.47325181 3.1577506 -4.36067448 3.06866652 -8 3 C-8.33 2.01 -8.66 1.02 -9 0 C-9.66 -0.33 -10.32 -0.66 -11 -1 C-6.9887967 -2.60448132 -3.97557527 -1.25156999 0 0 Z " fill="#EBBF58" transform="translate(81,30)"/>
<path d="M0 0 C0 3.59857954 -0.95830515 5.09451118 -3 8 C-3.66 8 -4.32 8 -5 8 C-5.33 8.66 -5.66 9.32 -6 10 C-6.66 10 -7.32 10 -8 10 C-7.67 9.01 -7.34 8.02 -7 7 C-6.34 6.67 -5.68 6.34 -5 6 C-4.67 5.01 -4.34 4.02 -4 3 C-5.32 3.33 -6.64 3.66 -8 4 C-7.67 3.01 -7.34 2.02 -7 1 C-3.535 0.505 -3.535 0.505 0 0 Z " fill="#666668" transform="translate(390,98)"/>
<path d="M0 0 C7.30434783 -0.36521739 7.30434783 -0.36521739 10.5 1.3125 C12 3 12 3 12 6 C7.76570244 4.68938409 3.92592596 3.05643741 0 1 C0 0.67 0 0.34 0 0 Z " fill="#E2A776" transform="translate(73,97)"/>
<path d="M0 0 C0.33 0 0.66 0 1 0 C1.38613383 2.62571005 1.38493778 4.3843879 -0.04296875 6.66796875 C-1.375 8.3125 -1.375 8.3125 -4 11 C-4.66 11 -5.32 11 -6 11 C-6 11.66 -6 12.32 -6 13 C-8.31 13 -10.62 13 -13 13 C-11.00956313 11.67304209 -9.00954842 10.36033335 -7 9.0625 C-2.64743204 6.21268143 -2.64743204 6.21268143 -0.3125 1.8125 C-0.209375 1.214375 -0.10625 0.61625 0 0 Z " fill="#ADADAD" transform="translate(200,132)"/>
<path d="M0 0 C-1.65 0.33 -3.3 0.66 -5 1 C-5.33 2.65 -5.66 4.3 -6 6 C-6.99 5.67 -7.98 5.34 -9 5 C-9 4.34 -9 3.68 -9 3 C-10.65 3.33 -12.3 3.66 -14 4 C-12.66065756 1.32131513 -11.48307603 1.25045922 -8.6875 0.3125 C-7.90761719 0.04050781 -7.12773437 -0.23148437 -6.32421875 -0.51171875 C-3.81725489 -1.03839183 -2.39867657 -0.8178554 0 0 Z " fill="#727273" transform="translate(398,81)"/>
<path d="M0 0 C4.95 0 9.9 0 15 0 C15 0.66 15 1.32 15 2 C11.52674819 3.1577506 8.63932552 3.06866652 5 3 C5 2.67 5 2.34 5 2 C3.35 1.67 1.7 1.34 0 1 C0 0.67 0 0.34 0 0 Z " fill="#949495" transform="translate(152,83)"/>
<path d="M0 0 C-3.25439617 2.04562045 -6.4317675 3.59148717 -10 5 C-10.99 5.66 -11.98 6.32 -13 7 C-13.99 6.67 -14.98 6.34 -16 6 C-14.61133677 5.0106909 -13.21370149 4.03396922 -11.8125 3.0625 C-11.03519531 2.51722656 -10.25789063 1.97195312 -9.45703125 1.41015625 C-6.23452928 -0.43932422 -3.46676284 -1.73338142 0 0 Z " fill="#E46C24" transform="translate(69,43)"/>
<path d="M0 0 C-0.33 0.66 -0.66 1.32 -1 2 C-1.58007812 1.89300781 -2.16015625 1.78601563 -2.7578125 1.67578125 C-8.20106396 0.84043078 -11.14594972 1.04021325 -16 4 C-16.66 4 -17.32 4 -18 4 C-17.3125 2.0625 -17.3125 2.0625 -16 0 C-10.98749839 -1.71857198 -5.03850627 -1.61232201 0 0 Z " fill="#F6C93C" transform="translate(124,16)"/>
<path d="M0 0 C9.14634146 0.91463415 9.14634146 0.91463415 12 3 C13.25 5.125 13.25 5.125 14 7 C9.0276578 5.50829734 4.58154261 3.39542583 0 1 C0 0.67 0 0.34 0 0 Z " fill="#E3BD82" transform="translate(86,104)"/>
<path d="M0 0 C7.63076923 1.47692308 7.63076923 1.47692308 9.5 4.125 C9.665 4.74375 9.83 5.3625 10 6 C6.05879291 5.43697042 3.2491277 4.3208055 0 2 C0 1.34 0 0.68 0 0 Z " fill="#EAC577" transform="translate(50,19)"/>
<path d="M0 0 C3.82562049 3.4229236 5.84652754 5.96666561 7 11 C7.125 13.875 7.125 13.875 7 16 C6.33333333 14.66666667 5.66666667 13.33333333 5 12 C4.505 11.05125 4.01 10.1025 3.5 9.125 C2.06117811 6.1274544 0.98200598 3.17263469 0 0 Z " fill="#B7B7B8" transform="translate(286,89)"/>
<path d="M0 0 C0.66 0.33 1.32 0.66 2 1 C1.67 1.99 1.34 2.98 1 4 C-0.1446875 4.1546875 -0.1446875 4.1546875 -1.3125 4.3125 C-4.21894395 5.05600892 -5.03566029 5.84858032 -7 8 C-7.66 8 -8.32 8 -9 8 C-9 7.34 -9 6.68 -9 6 C-6.23003304 3.53780715 -3.48737556 1.32279763 0 0 Z " fill="#F0D384" transform="translate(106,14)"/>
<path d="M0 0 C5.54050113 0.56825653 10.03715966 2.62886517 15 5 C11.81230857 6.05543251 10.05213369 5.97424908 6.9375 4.75 C6.26589844 4.49734375 5.59429687 4.2446875 4.90234375 3.984375 C2.84810509 2.9214014 1.54126835 1.70931942 0 0 Z " fill="#DFA696" transform="translate(13,3)"/>
<path d="M0 0 C0.33 0.66 0.66 1.32 1 2 C-0.28524261 2.86380259 -1.57842419 3.71580369 -2.875 4.5625 C-3.59429687 5.03816406 -4.31359375 5.51382813 -5.0546875 6.00390625 C-5.69664062 6.33261719 -6.33859375 6.66132813 -7 7 C-7.66 6.67 -8.32 6.34 -9 6 C-3.85714286 0.42857143 -3.85714286 0.42857143 0 0 Z " fill="#838383" transform="translate(434,147)"/>
<path d="M0 0 C2 3 2 3 3 5 C4.65 3.68 6.3 2.36 8 1 C8.66 1.33 9.32 1.66 10 2 C7.36 3.98 4.72 5.96 2 8 C1.34 7.67 0.68 7.34 0 7 C0 4.69 0 2.38 0 0 Z " fill="#CCCCCC" transform="translate(240,83)"/>
<path d="M0 0 C-0.5625 1.8125 -0.5625 1.8125 -2 4 C-5.56896879 5.7844844 -9.0802591 7.21605182 -13 8 C-10.83676753 5.68757908 -8.62352196 3.9843604 -5.9375 2.3125 C-5.24527344 1.87550781 -4.55304688 1.43851563 -3.83984375 0.98828125 C-2 0 -2 0 0 0 Z " fill="#E8BF87" transform="translate(96,22)"/>
<path d="M0 0 C5.28 0.99 10.56 1.98 16 3 C16 3.33 16 3.66 16 4 C14.08458862 4.10841951 12.16740227 4.18578079 10.25 4.25 C8.64898437 4.31960937 8.64898437 4.31960937 7.015625 4.390625 C4 4 4 4 0 0 Z " fill="#9D9D9D" transform="translate(393,141)"/>
<path d="M0 0 C3 2 3 2 4 5 C4.0685495 6.89470816 4.08480372 8.7916834 4.0625 10.6875 C4.05347656 11.68136719 4.04445312 12.67523438 4.03515625 13.69921875 C4.02355469 14.45847656 4.01195312 15.21773437 4 16 C3.67 16 3.34 16 3 16 C2.86722656 15.26394531 2.73445313 14.52789062 2.59765625 13.76953125 C2.42105469 12.79371094 2.24445313 11.81789063 2.0625 10.8125 C1.80146484 9.36810547 1.80146484 9.36810547 1.53515625 7.89453125 C1.0476265 5.25760028 0.53328895 2.6280095 0 0 Z " fill="#F5C243" transform="translate(124,18)"/>
<path d="M0 0 C-5.39068413 3.59378942 -8.53673535 4.45356243 -15 4 C-15 3.67 -15 3.34 -15 3 C-12.87790224 2.30359327 -10.75221473 1.61811643 -8.625 0.9375 C-6.84996094 0.36322266 -6.84996094 0.36322266 -5.0390625 -0.22265625 C-2 -1 -2 -1 0 0 Z " fill="#E16A4B" transform="translate(27,92)"/>
<path d="M0 0 C2.64 0.99 5.28 1.98 8 3 C8 3.99 8 4.98 8 6 C6.35 5.67 4.7 5.34 3 5 C2.67 4.01 2.34 3.02 2 2 C1.34 2 0.68 2 0 2 C0 1.34 0 0.68 0 0 Z " fill="#DD9F81" transform="translate(31,10)"/>
<path d="M0 0 C0.33 0.99 0.66 1.98 1 3 C-0.32 3.33 -1.64 3.66 -3 4 C-3 4.66 -3 5.32 -3 6 C-4.65 5.67 -6.3 5.34 -8 5 C-8.33 4.01 -8.66 3.02 -9 2 C-7.329375 2.061875 -7.329375 2.061875 -5.625 2.125 C-1.95633975 2.41121859 -1.95633975 2.41121859 0 0 Z " fill="#E8D06C" transform="translate(129,118)"/>
<path d="M0 0 C1.65 0 3.3 0 5 0 C4.67 0.66 4.34 1.32 4 2 C3.34 2 2.68 2 2 2 C2.33 4.31 2.66 6.62 3 9 C0.90250005 6.64031256 0.03094296 5.45383006 -0.1875 2.25 C-0.125625 1.5075 -0.06375 0.765 0 0 Z " fill="#969696" transform="translate(383,123)"/>
<path d="M0 0 C-0.598125 0.7425 -1.19625 1.485 -1.8125 2.25 C-3.58173222 4.47417764 -5.30860915 6.71662235 -7 9 C-6.65171318 3.60155422 -6.65171318 3.60155422 -6 1 C-3.57219651 -0.95790604 -2.83012171 -1.41506085 0 0 Z " fill="#AEAEAE" transform="translate(250,100)"/>
<path d="M0 0 C1.65 0 3.3 0 5 0 C5 1.98 5 3.96 5 6 C4.67 5.01 4.34 4.02 4 3 C2.35 3 0.7 3 -1 3 C-0.67 2.01 -0.34 1.02 0 0 Z " fill="#6B6B6B" transform="translate(365,142)"/>
<path d="M0 0 C1.98 0 3.96 0 6 0 C6 0.66 6 1.32 6 2 C6.66 2 7.32 2 8 2 C8.33 2.99 8.66 3.98 9 5 C5.9168649 3.80100302 2.93720508 2.52299523 0 1 C0 0.67 0 0.34 0 0 Z " fill="#E1A878" transform="translate(64,92)"/>
<path d="M0 0 C2.8125 -0.3125 2.8125 -0.3125 6 0 C7.875 2.5 7.875 2.5 9 5 C5.22454612 3.90931332 2.52956528 3.0916909 0 0 Z " fill="#DF9D82" transform="translate(55,87)"/>
<path d="M0 0 C0.78375 0.04125 1.5675 0.0825 2.375 0.125 C2.375 1.115 2.375 2.105 2.375 3.125 C3.035 3.455 3.695 3.785 4.375 4.125 C3.055 4.125 1.735 4.125 0.375 4.125 C0.375 3.465 0.375 2.805 0.375 2.125 C-1.275 2.125 -2.925 2.125 -4.625 2.125 C-2.625 0.125 -2.625 0.125 0 0 Z " fill="#D7856A" transform="translate(28.625,8.875)"/>
<path d="M0 0 C0.928125 0.0825 1.85625 0.165 2.8125 0.25 C3.1425 0.91 3.4725 1.57 3.8125 2.25 C2.905 2.394375 1.9975 2.53875 1.0625 2.6875 C-1.40226956 3.11409473 -3.77597107 3.60074221 -6.1875 4.25 C-4.36434338 1.00883268 -3.82500054 0.30000004 0 0 Z " fill="#EEBF90" transform="translate(47.1875,82.75)"/>
<path d="M0 0 C2.64 0.33 5.28 0.66 8 1 C8 1.66 8 2.32 8 3 C5.03 3 2.06 3 -1 3 C-0.67 2.01 -0.34 1.02 0 0 Z " fill="#F1CE7D" transform="translate(75,29)"/>
</svg>
