<?xml version="1.0" encoding="UTF-8"?>
<svg version="1.1" xmlns="http://www.w3.org/2000/svg" width="166" height="159">
<path d="M0 0 C4.6663983 1.38024108 8.97461301 3.31068248 13.375 5.375 C14.60373108 5.92949755 15.8335729 6.48153964 17.06445312 7.03125 C19.54671732 8.1432013 22.02311515 9.26678988 24.49511719 10.40136719 C29.46750706 12.66935332 34.48154479 14.83638131 39.5 17 C45.19666739 19.46191213 50.88334403 21.94130542 56.54168701 24.49035645 C59.10267886 25.64058521 61.66984939 26.77658846 64.23803711 27.91064453 C65.48615548 28.46583032 66.73151349 29.02726789 67.97387695 29.59521484 C69.70712637 30.38679237 71.45106182 31.154843 73.1953125 31.921875 C74.19578613 32.37143555 75.19625977 32.82099609 76.22705078 33.28417969 C80.35716861 34.35034499 82.55790401 32.77610984 86.1484375 30.84375 C92.05159407 27.28114323 97.79356059 23.51513449 103.47021484 19.60351562 C112.75090956 13.29513468 120.57477336 9.97883337 132 11 C135.64071092 12.01346031 138.10054563 13.67840907 140.2734375 16.87109375 C143.100667 22.17465548 144.1223475 27.1789295 144.13371277 33.18144226 C144.14011024 34.71458572 144.14011024 34.71458572 144.14663696 36.27870178 C144.14618378 37.38902267 144.14573059 38.49934357 144.14526367 39.64331055 C144.14862228 40.82101013 144.1519809 41.99870972 144.15544128 43.21209717 C144.16330158 46.43291712 144.16661801 49.65369835 144.16725707 52.87452674 C144.16796868 54.88653129 144.170105 56.89852912 144.17275429 58.910532 C144.18199445 65.92839613 144.18609041 72.94624131 144.18530273 79.96411133 C144.1847007 86.50970318 144.1952805 93.05521295 144.2110464 99.600784 C144.22410267 105.22125566 144.22948751 110.8417004 144.22884732 116.46218711 C144.22859198 119.81904066 144.23146361 123.17582107 144.24202538 126.53265953 C144.25176571 130.27013463 144.24897141 134.00739488 144.24291992 137.74487305 C144.24853943 138.86126663 144.25415894 139.97766022 144.25994873 141.12788391 C144.25575424 142.14152008 144.25155975 143.15515625 144.24723816 144.19950867 C144.24778293 145.0834666 144.24832769 145.96742453 144.24888897 146.87816906 C144 149 144 149 142 151 C133.38286437 152.4533378 127.30600183 150.83229113 120.14453125 146.01953125 C116.74730405 143.83770956 113.26421231 142.09541721 109.64379883 140.3190918 C105.33961852 138.17157253 101.14682038 135.82643991 96.9375 133.5 C87.551705 128.34256783 78.08397946 123.35848941 68.56420898 118.453125 C52.78005391 110.30779471 52.78005391 110.30779471 47.9375 106.75 C44.23150113 104.54217088 41.27379422 103.54864782 37 104 C32.62655913 105.83581186 28.66243574 108.2735776 24.625 110.75 C5.64050731 122.20458573 5.64050731 122.20458573 -5 121 C-10.18948982 119.32880836 -12.97204246 117.54193631 -16 113 C-17.16288895 110.6742221 -17.1330151 109.31470376 -17.14717102 106.72427368 C-17.15432632 105.82699051 -17.16148163 104.92970734 -17.16885376 104.00523376 C-17.17154266 103.01817947 -17.17423157 102.03112518 -17.17700195 101.01416016 C-17.18357315 99.97666122 -17.19014435 98.93916229 -17.19691467 97.870224 C-17.21667504 94.42650283 -17.22831526 90.98282529 -17.23828125 87.5390625 C-17.24235678 86.36540508 -17.2464323 85.19174767 -17.25063133 83.98252487 C-17.27150193 77.7728569 -17.28580042 71.56321111 -17.29516602 65.35351562 C-17.30624358 58.92822267 -17.34065653 52.50327478 -17.38033772 46.07810402 C-17.40643429 41.14709818 -17.41485158 36.21617549 -17.41844749 31.28510666 C-17.42333003 28.91596516 -17.434991 26.54682778 -17.45348549 24.17775345 C-17.47773255 20.86643043 -17.47693826 17.55601279 -17.4699707 14.24462891 C-17.48278076 13.26162308 -17.49559082 12.27861725 -17.50878906 11.26582336 C-17.45785072 4.64217632 -17.45785072 4.64217632 -15.14338684 1.39593506 C-10.57552674 -1.57899972 -5.19680734 -0.68375319 0 0 Z " fill="#F48232" transform="translate(20,3)"/>
<path d="M0 0 C4.6663983 1.38024108 8.97461301 3.31068248 13.375 5.375 C14.60373108 5.92949755 15.8335729 6.48153964 17.06445312 7.03125 C19.54671732 8.1432013 22.02311515 9.26678988 24.49511719 10.40136719 C29.46750706 12.66935332 34.48154479 14.83638131 39.5 17 C45.19666739 19.46191213 50.88334403 21.94130542 56.54168701 24.49035645 C59.10267886 25.64058521 61.66984939 26.77658846 64.23803711 27.91064453 C65.48615548 28.46583032 66.73151349 29.02726789 67.97387695 29.59521484 C69.70712637 30.38679237 71.45106182 31.154843 73.1953125 31.921875 C74.19578613 32.37143555 75.19625977 32.82099609 76.22705078 33.28417969 C80.35716861 34.35034499 82.55790401 32.77610984 86.1484375 30.84375 C92.05159407 27.28114323 97.79356059 23.51513449 103.47021484 19.60351562 C112.75090956 13.29513468 120.57477336 9.97883337 132 11 C135.64071092 12.01346031 138.10054563 13.67840907 140.2734375 16.87109375 C143.100667 22.17465548 144.1223475 27.1789295 144.13371277 33.18144226 C144.14011024 34.71458572 144.14011024 34.71458572 144.14663696 36.27870178 C144.14618378 37.38902267 144.14573059 38.49934357 144.14526367 39.64331055 C144.14862228 40.82101013 144.1519809 41.99870972 144.15544128 43.21209717 C144.16330158 46.43291712 144.16661801 49.65369835 144.16725707 52.87452674 C144.16796868 54.88653129 144.170105 56.89852912 144.17275429 58.910532 C144.18199445 65.92839613 144.18609041 72.94624131 144.18530273 79.96411133 C144.1847007 86.50970318 144.1952805 93.05521295 144.2110464 99.600784 C144.22410267 105.22125566 144.22948751 110.8417004 144.22884732 116.46218711 C144.22859198 119.81904066 144.23146361 123.17582107 144.24202538 126.53265953 C144.25176571 130.27013463 144.24897141 134.00739488 144.24291992 137.74487305 C144.24853943 138.86126663 144.25415894 139.97766022 144.25994873 141.12788391 C144.25575424 142.14152008 144.25155975 143.15515625 144.24723816 144.19950867 C144.24778293 145.0834666 144.24832769 145.96742453 144.24888897 146.87816906 C144 149 144 149 142 151 C133.38286437 152.4533378 127.30600183 150.83229113 120.14453125 146.01953125 C116.74730405 143.83770956 113.26421231 142.09541721 109.64379883 140.3190918 C105.33961852 138.17157253 101.14682038 135.82643991 96.9375 133.5 C87.551705 128.34256783 78.08397946 123.35848941 68.56420898 118.453125 C52.78005391 110.30779471 52.78005391 110.30779471 47.9375 106.75 C44.23150113 104.54217088 41.27379422 103.54864782 37 104 C32.62655913 105.83581186 28.66243574 108.2735776 24.625 110.75 C5.64050731 122.20458573 5.64050731 122.20458573 -5 121 C-10.18948982 119.32880836 -12.97204246 117.54193631 -16 113 C-17.16288895 110.6742221 -17.1330151 109.31470376 -17.14717102 106.72427368 C-17.15432632 105.82699051 -17.16148163 104.92970734 -17.16885376 104.00523376 C-17.17154266 103.01817947 -17.17423157 102.03112518 -17.17700195 101.01416016 C-17.18357315 99.97666122 -17.19014435 98.93916229 -17.19691467 97.870224 C-17.21667504 94.42650283 -17.22831526 90.98282529 -17.23828125 87.5390625 C-17.24235678 86.36540508 -17.2464323 85.19174767 -17.25063133 83.98252487 C-17.27150193 77.7728569 -17.28580042 71.56321111 -17.29516602 65.35351562 C-17.30624358 58.92822267 -17.34065653 52.50327478 -17.38033772 46.07810402 C-17.40643429 41.14709818 -17.41485158 36.21617549 -17.41844749 31.28510666 C-17.42333003 28.91596516 -17.434991 26.54682778 -17.45348549 24.17775345 C-17.47773255 20.86643043 -17.47693826 17.55601279 -17.4699707 14.24462891 C-17.48278076 13.26162308 -17.49559082 12.27861725 -17.50878906 11.26582336 C-17.45785072 4.64217632 -17.45785072 4.64217632 -15.14338684 1.39593506 C-10.57552674 -1.57899972 -5.19680734 -0.68375319 0 0 Z M126 17 C125.443125 17.7734375 125.443125 17.7734375 124.875 18.5625 C124.25625 19.036875 123.6375 19.51125 123 20 C120.99453311 19.70131344 118.99422795 19.36628677 117 19 C113.75823018 20.2702445 111.25830935 22.26496733 108.5625 24.4375 C106.08817681 26.41126109 103.83885325 28.08914501 101.0625 29.625 C98.43485494 31.37676338 97.88444972 33.02503275 97 36 C95.948125 35.9175 94.89625 35.835 93.8125 35.75 C89.46236331 36.03525487 88.0684847 37.02449969 85 40 C84.67 39.67 84.34 39.34 84 39 C78.69631673 38.39138061 75.32499561 40.09824215 70.9375 42.8125 C70.0393457 43.34713867 70.0393457 43.34713867 69.12304688 43.89257812 C67.40808855 44.91629366 65.70378818 45.95779974 64 47 C63.03191406 47.54011719 62.06382813 48.08023438 61.06640625 48.63671875 C60.38449219 49.08660156 59.70257813 49.53648438 59 50 C59 50.66 59 51.32 59 52 C58.195625 52.20625 57.39125 52.4125 56.5625 52.625 C52.63528596 54.14076682 49.57774518 56.15596829 46.1484375 58.5625 C44.15399332 59.89696447 42.16849473 60.97953189 40 62 C40 62.66 40 63.32 40 64 C39.34 64 38.68 64 38 64 C38 75.55 38 87.1 38 99 C41.3 99.99 44.6 100.98 48 102 C48 102.66 48 103.32 48 104 C50.75078884 104.91692961 52.35948913 105.10886083 55.1875 105.0625 C56.445625 105.041875 57.70375 105.02125 59 105 C59.33 106.32 59.66 107.64 60 109 C63.465 109.495 63.465 109.495 67 110 C67 110.66 67 111.32 67 112 C69.72464164 114.40446486 72.50297207 115.76516215 75.875 117.0625 C76.74769531 117.4028125 77.62039062 117.743125 78.51953125 118.09375 C80.50940971 118.82076071 82.53234055 119.45701385 84.5625 120.0625 C85.7690625 120.5265625 85.7690625 120.5265625 87 121 C87.33 121.99 87.66 122.98 88 124 C90.07942564 125.36363256 90.07942564 125.36363256 92.625 126.5 C93.52992187 126.93054688 94.43484375 127.36109375 95.3671875 127.8046875 C98.55892964 129.25375737 101.77176265 130.63420727 105 132 C106.051875 132.53625 107.10375 133.0725 108.1875 133.625 C110.79184674 135.05279842 110.79184674 135.05279842 113 135.375 C115.67702799 136.21157125 117.28179689 137.9712874 119.35546875 139.79296875 C121.99616552 141.73115236 124.84185587 142.29819019 128 143 C129.2065625 143.309375 129.2065625 143.309375 130.4375 143.625 C131.2109375 143.810625 131.2109375 143.810625 132 144 C132 144.66 132 145.32 132 146 C136.12279468 145.61455224 136.12279468 145.61455224 139.67582989 143.69462585 C142.00289383 140.71653211 141.40539041 136.95966606 141.37231445 133.33203125 C141.37596512 132.4452771 141.37961578 131.55852295 141.38337708 130.64489746 C141.39150741 127.70057231 141.37783461 124.75679405 141.36328125 121.8125 C141.36276221 119.75480144 141.36328162 117.69710237 141.36479187 115.6394043 C141.36470199 111.31161148 141.35425364 106.98400427 141.33618164 102.65625 C141.3137214 97.16185015 141.31290723 91.66772695 141.31969929 86.17329407 C141.32307857 81.91249219 141.31633199 77.65175097 141.30657005 73.39096069 C141.30276824 71.3691744 141.30154854 69.34738127 141.3031559 67.32559204 C141.30447417 57.39027747 141.14094885 47.50430394 140.23120117 37.60546875 C140.17064954 36.8520369 140.1100979 36.09860504 140.04771137 35.32234192 C139.46419253 29.8226742 137.68400642 25.83214436 135 21 C134.34 21 133.68 21 133 21 C133 20.34 133 19.68 133 19 C130.69 18.34 128.38 17.68 126 17 Z " fill="#F58851" transform="translate(20,3)"/>
<path d="M0 0 C4.6663983 1.38024108 8.97461301 3.31068248 13.375 5.375 C14.60373108 5.92949755 15.8335729 6.48153964 17.06445312 7.03125 C19.54671732 8.1432013 22.02311515 9.26678988 24.49511719 10.40136719 C29.46750706 12.66935332 34.48154479 14.83638131 39.5 17 C45.19666739 19.46191213 50.88334403 21.94130542 56.54168701 24.49035645 C59.10267886 25.64058521 61.66984939 26.77658846 64.23803711 27.91064453 C65.48615548 28.46583032 66.73151349 29.02726789 67.97387695 29.59521484 C69.70712637 30.38679237 71.45106182 31.154843 73.1953125 31.921875 C74.19578613 32.37143555 75.19625977 32.82099609 76.22705078 33.28417969 C80.35716861 34.35034499 82.55790401 32.77610984 86.1484375 30.84375 C92.05159407 27.28114323 97.79356059 23.51513449 103.47021484 19.60351562 C112.75090956 13.29513468 120.57477336 9.97883337 132 11 C135.64071092 12.01346031 138.10054563 13.67840907 140.2734375 16.87109375 C143.100667 22.17465548 144.1223475 27.1789295 144.13371277 33.18144226 C144.14011024 34.71458572 144.14011024 34.71458572 144.14663696 36.27870178 C144.14618378 37.38902267 144.14573059 38.49934357 144.14526367 39.64331055 C144.14862228 40.82101013 144.1519809 41.99870972 144.15544128 43.21209717 C144.16330158 46.43291712 144.16661801 49.65369835 144.16725707 52.87452674 C144.16796868 54.88653129 144.170105 56.89852912 144.17275429 58.910532 C144.18199445 65.92839613 144.18609041 72.94624131 144.18530273 79.96411133 C144.1847007 86.50970318 144.1952805 93.05521295 144.2110464 99.600784 C144.22410267 105.22125566 144.22948751 110.8417004 144.22884732 116.46218711 C144.22859198 119.81904066 144.23146361 123.17582107 144.24202538 126.53265953 C144.25176571 130.27013463 144.24897141 134.00739488 144.24291992 137.74487305 C144.24853943 138.86126663 144.25415894 139.97766022 144.25994873 141.12788391 C144.25575424 142.14152008 144.25155975 143.15515625 144.24723816 144.19950867 C144.24778293 145.0834666 144.24832769 145.96742453 144.24888897 146.87816906 C144 149 144 149 142 151 C133.38286437 152.4533378 127.30600183 150.83229113 120.14453125 146.01953125 C116.74730405 143.83770956 113.26421231 142.09541721 109.64379883 140.3190918 C105.33961852 138.17157253 101.14682038 135.82643991 96.9375 133.5 C87.551705 128.34256783 78.08397946 123.35848941 68.56420898 118.453125 C52.78005391 110.30779471 52.78005391 110.30779471 47.9375 106.75 C44.23150113 104.54217088 41.27379422 103.54864782 37 104 C32.62655913 105.83581186 28.66243574 108.2735776 24.625 110.75 C5.64050731 122.20458573 5.64050731 122.20458573 -5 121 C-10.18948982 119.32880836 -12.97204246 117.54193631 -16 113 C-17.16288895 110.6742221 -17.1330151 109.31470376 -17.14717102 106.72427368 C-17.15432632 105.82699051 -17.16148163 104.92970734 -17.16885376 104.00523376 C-17.17154266 103.01817947 -17.17423157 102.03112518 -17.17700195 101.01416016 C-17.18357315 99.97666122 -17.19014435 98.93916229 -17.19691467 97.870224 C-17.21667504 94.42650283 -17.22831526 90.98282529 -17.23828125 87.5390625 C-17.24235678 86.36540508 -17.2464323 85.19174767 -17.25063133 83.98252487 C-17.27150193 77.7728569 -17.28580042 71.56321111 -17.29516602 65.35351562 C-17.30624358 58.92822267 -17.34065653 52.50327478 -17.38033772 46.07810402 C-17.40643429 41.14709818 -17.41485158 36.21617549 -17.41844749 31.28510666 C-17.42333003 28.91596516 -17.434991 26.54682778 -17.45348549 24.17775345 C-17.47773255 20.86643043 -17.47693826 17.55601279 -17.4699707 14.24462891 C-17.48278076 13.26162308 -17.49559082 12.27861725 -17.50878906 11.26582336 C-17.45785072 4.64217632 -17.45785072 4.64217632 -15.14338684 1.39593506 C-10.57552674 -1.57899972 -5.19680734 -0.68375319 0 0 Z M-15 4 C-16.31412092 7.94236276 -16.13915217 11.70151506 -16.12939453 15.81079102 C-16.13114685 16.7120018 -16.13289917 17.61321259 -16.13470459 18.54173279 C-16.13911478 21.52914339 -16.13618629 24.51649501 -16.1328125 27.50390625 C-16.13348619 29.5831656 -16.13445676 31.66242488 -16.13571167 33.74168396 C-16.13718785 38.10717516 -16.13503815 42.47264594 -16.13037109 46.83813477 C-16.12469863 52.41406938 -16.1279375 57.9899556 -16.13394356 63.5658884 C-16.1375725 67.86490741 -16.13639946 72.16391513 -16.13381577 76.46293449 C-16.13315165 78.51728254 -16.13395678 80.57163164 -16.13629532 82.62597847 C-16.13885742 85.51182861 -16.13493044 88.39760273 -16.12939453 91.28344727 C-16.13141876 92.12175079 -16.13344299 92.96005432 -16.13552856 93.82376099 C-16.38969644 106.25878987 -16.38969644 106.25878987 -11 117 C-5.7206153 120.5195898 0.85977049 119.57132994 6.94140625 118.46484375 C10.57981796 117.51128175 10.57981796 117.51128175 14 116 C14.68741609 114.67724479 15.35424549 113.343586 16 112 C17.8046875 110.875 17.8046875 110.875 19.875 110 C22.49698737 108.80177997 23.96448846 108.03662128 26 105.9375 C28.88672093 103.1409891 32.20478772 102.16376627 36 101 C36.65484375 100.78859375 37.3096875 100.5771875 37.984375 100.359375 C41.53537387 99.72625117 44.57325665 101.02908939 48 102 C48 102.66 48 103.32 48 104 C50.75078884 104.91692961 52.35948913 105.10886083 55.1875 105.0625 C56.445625 105.041875 57.70375 105.02125 59 105 C59.33 106.32 59.66 107.64 60 109 C62.31 109.33 64.62 109.66 67 110 C67 110.66 67 111.32 67 112 C69.72464164 114.40446486 72.50297207 115.76516215 75.875 117.0625 C76.74769531 117.4028125 77.62039062 117.743125 78.51953125 118.09375 C80.50940971 118.82076071 82.53234055 119.45701385 84.5625 120.0625 C85.366875 120.371875 86.17125 120.68125 87 121 C87.33 121.99 87.66 122.98 88 124 C90.07942564 125.36363256 90.07942564 125.36363256 92.625 126.5 C93.52992187 126.93054688 94.43484375 127.36109375 95.3671875 127.8046875 C98.55892964 129.25375737 101.77176265 130.63420727 105 132 C106.5778125 132.804375 106.5778125 132.804375 108.1875 133.625 C110.79184674 135.05279842 110.79184674 135.05279842 113 135.375 C115.67702799 136.21157125 117.28179689 137.9712874 119.35546875 139.79296875 C121.99616552 141.73115236 124.84185587 142.29819019 128 143 C128.804375 143.20625 129.60875 143.4125 130.4375 143.625 C131.2109375 143.810625 131.2109375 143.810625 132 144 C132 144.66 132 145.32 132 146 C136.12279468 145.61455224 136.12279468 145.61455224 139.67582989 143.69462585 C142.00289383 140.71653211 141.40539041 136.95966606 141.37231445 133.33203125 C141.37596512 132.4452771 141.37961578 131.55852295 141.38337708 130.64489746 C141.39150741 127.70057231 141.37783461 124.75679405 141.36328125 121.8125 C141.36276221 119.75480144 141.36328162 117.69710237 141.36479187 115.6394043 C141.36470199 111.31161148 141.35425364 106.98400427 141.33618164 102.65625 C141.3137214 97.16185015 141.31290723 91.66772695 141.31969929 86.17329407 C141.32307857 81.91249219 141.31633199 77.65175097 141.30657005 73.39096069 C141.30276824 71.3691744 141.30154854 69.34738127 141.3031559 67.32559204 C141.30447417 57.39027747 141.14094885 47.50430394 140.23120117 37.60546875 C140.17064954 36.8520369 140.1100979 36.09860504 140.04771137 35.32234192 C139.46419253 29.8226742 137.68400642 25.83214436 135 21 C134.34 21 133.68 21 133 21 C133 20.34 133 19.68 133 19 C130.69 18.34 128.38 17.68 126 17 C125.443125 17.7734375 125.443125 17.7734375 124.875 18.5625 C124.25625 19.036875 123.6375 19.51125 123 20 C120.99453311 19.70131344 118.99422795 19.36628677 117 19 C113.75823018 20.2702445 111.25830935 22.26496733 108.5625 24.4375 C106.08817681 26.41126109 103.83885325 28.08914501 101.0625 29.625 C98.43485494 31.37676338 97.88444972 33.02503275 97 36 C95.948125 35.9175 94.89625 35.835 93.8125 35.75 C89.46236331 36.03525487 88.0684847 37.02449969 85 40 C84.67 39.67 84.34 39.34 84 39 C78.69631673 38.39138061 75.32499561 40.09824215 70.9375 42.8125 C70.33873047 43.16892578 69.73996094 43.52535156 69.12304688 43.89257812 C67.40808855 44.91629366 65.70378818 45.95779974 64 47 C63.03191406 47.54011719 62.06382813 48.08023438 61.06640625 48.63671875 C60.38449219 49.08660156 59.70257813 49.53648438 59 50 C59 50.66 59 51.32 59 52 C58.0925 52.268125 57.185 52.53625 56.25 52.8125 C53.02682554 53.79657659 53.02682554 53.79657659 50.875 55.6875 C49 57 49 57 46.75 56.6875 C46.1725 56.460625 45.595 56.23375 45 56 C45.33 56 45.66 56 46 56 C48.97739332 55.40452134 50.37001328 54.75332448 53 53 C53 52.34 53 51.68 53 51 C54.32 51 55.64 51 57 51 C57.66 49.35 58.32 47.7 59 46 C60.65 46 62.3 46 64 46 C64 45.34 64 44.68 64 44 C64.94875 43.690625 65.8975 43.38125 66.875 43.0625 C69.86080408 42.12605258 69.86080408 42.12605258 72 41 C72.04289755 39.06890419 72.04289755 39.06890419 71 37 C65.81186409 34.03535091 61.91125786 33.68888117 56 34 C55.505 32.02 55.505 32.02 55 30 C54.46375 29.896875 53.9275 29.79375 53.375 29.6875 C50.36942814 28.81746604 47.79633942 27.40652198 45 26 C41.64745687 24.48721908 38.28874019 22.98947662 34.92578125 21.5 C32.3726855 20.19106973 30.73274233 19.2531773 29 17 C29 16.34 29 15.68 29 15 C21.64302347 11.07070571 14.27013644 7.82926703 6.43359375 5.00537109 C3.81079207 4.05962426 1.25855358 3.13428399 -1.21875 1.84765625 C-5.89120243 -0.37585729 -11.45027031 0.16629194 -15 4 Z " fill="#F0C051" transform="translate(20,3)"/>
<path d="M0 0 C0.33 0 0.66 0 1 0 C1.8382387 14.07565889 2.1494845 28.09256056 2.1328125 42.19140625 C2.13348832 44.24071769 2.13446064 46.29002904 2.13571167 48.33934021 C2.13716993 52.58552837 2.13509144 56.83169521 2.13037109 61.07788086 C2.12461248 66.5228595 2.12800282 71.9677895 2.13394356 77.41276646 C2.13754745 81.62225211 2.13641245 85.83172609 2.13381577 90.04121208 C2.13314921 92.05110619 2.13396544 94.06100137 2.13629532 96.07089424 C2.13882565 98.86052425 2.13497866 101.65007332 2.12939453 104.43969727 C2.13141876 105.26710922 2.13344299 106.09452118 2.13552856 106.94700623 C2.12333619 110.22331536 2.04349792 112.86950623 1 116 C-3.18604217 118.66138457 -7.19849112 118.94455912 -12 118 C-15.06175296 116.53299589 -17.86360708 114.86020302 -20.71484375 113.01953125 C-24.17872577 110.89012934 -27.71976761 109.11226498 -31.36499023 107.3190918 C-35.66383183 105.16708206 -39.85556129 102.82512359 -44.0625 100.5 C-53.448295 95.34256783 -62.91602054 90.35848941 -72.43579102 85.453125 C-88.21994609 77.30779471 -88.21994609 77.30779471 -93.0625 73.75 C-96.72354251 71.5689534 -99.77561109 70.62513955 -104 71 C-107.87909346 72.57449652 -111.33515326 74.71646803 -114.875 76.9375 C-116.74547522 78.07477943 -118.61777957 79.20905777 -120.4921875 80.33984375 C-121.31058105 80.84894287 -122.12897461 81.35804199 -122.97216797 81.88256836 C-125 83 -125 83 -127 83 C-127 81.68 -127 80.36 -127 79 C-120.375 75 -120.375 75 -117 75 C-116.77054688 74.38511719 -116.54109375 73.77023438 -116.3046875 73.13671875 C-114.6093917 70.3602912 -113.15096403 69.91244241 -110.125 68.8125 C-109.26132813 68.48894531 -108.39765625 68.16539063 -107.5078125 67.83203125 C-101.68413764 65.89987744 -98.64172747 66.17913626 -93 69 C-93 69.66 -93 70.32 -93 71 C-89.37 71.33 -85.74 71.66 -82 72 C-81.67 72.99 -81.34 73.98 -81 75 C-77.48809191 76.22969878 -77.48809191 76.22969878 -74 77 C-74 77.66 -74 78.32 -74 79 C-71.11831315 80.49052768 -68.20729984 81.75335802 -65.1875 82.9375 C-61.09262404 84.55725093 -57.0382474 86.24424026 -53 88 C-53 88.66 -53 89.32 -53 90 C-46.20436963 93.48068293 -46.20436963 93.48068293 -39.25 96.625 C-36 98 -36 98 -32.8125 99.625 C-30.45785123 100.77616162 -28.51207029 101.39363821 -26 102 C-23 104 -23 104 -21.75 105.5 C-19.15775329 107.72192575 -16.26748275 108.14013612 -13 109 C-11.64649406 109.62469505 -10.30065517 110.2716331 -9 111 C-9 111.66 -9 112.32 -9 113 C-4.70111387 111.48134786 -4.70111387 111.48134786 -1 109 C-0.8924055 107.58366281 -0.85319678 106.1620562 -0.84178162 104.74168396 C-0.8319928 103.8231665 -0.82220398 102.90464905 -0.81211853 101.95829773 C-0.80636307 100.94266251 -0.8006076 99.92702728 -0.79467773 98.88061523 C-0.78477814 97.81733002 -0.77487854 96.7540448 -0.76467896 95.65853882 C-0.73295665 92.12524686 -0.70826427 88.59194142 -0.68359375 85.05859375 C-0.66303348 82.61621236 -0.64203727 80.1738346 -0.62062073 77.73146057 C-0.5653043 71.28869561 -0.51593737 64.84589804 -0.46777344 58.40307617 C-0.41762811 51.83444297 -0.36190576 45.2658574 -0.30664062 38.69726562 C-0.19894206 25.79821801 -0.09733403 12.89912977 0 0 Z " fill="#E49E7B" transform="translate(161,36)"/>
<path d="M0 0 C1.77007714 -0.08114106 3.54122098 -0.13925505 5.3125 -0.1875 C6.29863281 -0.22230469 7.28476563 -0.25710937 8.30078125 -0.29296875 C11 0 11 0 12.85546875 1.51171875 C13.23316406 2.00285156 13.61085938 2.49398438 14 3 C12.7625 2.896875 11.525 2.79375 10.25 2.6875 C6.94099519 2.7110098 6.19598095 2.85181928 3.4375 4.9375 C1.65204498 8.74129547 2.00705909 11.05746505 2.73828125 15.109375 C2.82464844 15.73328125 2.91101563 16.3571875 3 17 C2.67 17.33 2.34 17.66 2 18 C1.89961312 20.52415936 1.86382523 23.02097568 1.87060547 25.5456543 C1.86885315 26.33595535 1.86710083 27.12625641 1.86529541 27.94050598 C1.8608737 30.56843221 1.86381739 33.19629176 1.8671875 35.82421875 C1.86651422 37.64687615 1.86554398 39.46953346 1.86428833 41.29219055 C1.86281065 45.12147879 1.8649669 48.95074376 1.86962891 52.7800293 C1.8753061 57.68157413 1.87206043 62.58306396 1.86605644 67.48460674 C1.86243548 71.25332551 1.86359682 75.02203134 1.86618423 78.7907505 C1.8668503 80.59720682 1.86603627 82.40366432 1.86370468 84.21011925 C1.86115525 86.74256856 1.8650519 89.27493023 1.87060547 91.80737305 C1.86858124 92.55099091 1.86655701 93.29460876 1.86447144 94.0607605 C1.88099866 98.14454882 2.20778209 101.99317816 3 106 C3.66 106 4.32 106 5 106 C5.20625 106.61875 5.4125 107.2375 5.625 107.875 C7.62716991 110.96926258 9.44243618 111.15912128 13 112 C15.83544624 111.95616365 18.57670905 111.56523745 21.375 111.125 C22.11105469 111.02058594 22.84710937 110.91617188 23.60546875 110.80859375 C25.40545935 110.55145224 27.20302654 110.27744246 29 110 C28 113 28 113 26.13671875 113.94921875 C19.43679484 115.96881304 12.98799643 116.93930233 6 116 C2.24024243 113.89453576 0.66494103 111.88466191 -1 108 C-2.1828018 101.52978967 -2.14881593 94.8579772 -2.14526367 88.29931641 C-2.15030159 86.93151031 -2.15030159 86.93151031 -2.15544128 85.53607178 C-2.16484915 82.55788774 -2.16688843 79.57976041 -2.16796875 76.6015625 C-2.17118562 74.51793393 -2.17455001 72.43430559 -2.17805481 70.35067749 C-2.18401854 66.00184606 -2.18589727 61.65303444 -2.18530273 57.30419922 C-2.18520062 51.7289602 -2.19891535 46.15384713 -2.21607494 40.57863808 C-2.22717692 36.28416354 -2.22922259 31.98971981 -2.22869301 27.69523239 C-2.22987343 25.63871192 -2.23429871 23.58219065 -2.24202538 21.52568436 C-2.25179987 18.65847034 -2.24895857 15.7915347 -2.24291992 12.92431641 C-2.24853943 12.07543854 -2.25415894 11.22656067 -2.25994873 10.35195923 C-2.22187486 3.25385675 -2.22187486 3.25385675 0 0 Z " fill="#C57269" transform="translate(6,6)"/>
<path d="M0 0 C4.6663983 1.38024108 8.97461301 3.31068248 13.375 5.375 C14.60373108 5.92949755 15.8335729 6.48153964 17.06445312 7.03125 C19.54671732 8.1432013 22.02311515 9.26678988 24.49511719 10.40136719 C29.46750706 12.66935332 34.48154479 14.83638131 39.5 17 C45.19666739 19.46191213 50.88334403 21.94130542 56.54168701 24.49035645 C59.10267886 25.64058521 61.66984939 26.77658846 64.23803711 27.91064453 C65.48615548 28.46583032 66.73151349 29.02726789 67.97387695 29.59521484 C69.70712637 30.38679237 71.45106182 31.154843 73.1953125 31.921875 C74.19578613 32.37143555 75.19625977 32.82099609 76.22705078 33.28417969 C80.35716861 34.35034499 82.55790401 32.77610984 86.1484375 30.84375 C92.05159407 27.28114323 97.79356059 23.51513449 103.47021484 19.60351562 C112.75090956 13.29513468 120.57477336 9.97883337 132 11 C135.65097623 12.01631785 138.09309172 13.70325652 140.30859375 16.87109375 C142.34068464 20.59073418 143.53919536 23.68643711 143 28 C142.62875 27.1646875 142.62875 27.1646875 142.25 26.3125 C141.01583725 23.84916017 141.01583725 23.84916017 138.875 21.4375 C137 19 137 19 137 16 C129.68531575 12.9991039 123.32433461 13.27466619 116 16 C114.68 16 113.36 16 112 16 C112 16.66 112 17.32 112 18 C110.375 19.15625 110.375 19.15625 108 20.5 C104.57310826 22.4793254 101.18523515 24.497566 97.84375 26.6171875 C97.12703125 27.07158203 96.4103125 27.52597656 95.671875 27.99414062 C94.23255263 28.90924936 92.79502496 29.82718746 91.359375 30.74804688 C86.21999426 34 86.21999426 34 84 34 C84 34.66 84 35.32 84 36 C80.9290061 37.05060318 78.77262017 37.30798605 75.7265625 36.09375 C74.02346804 35.21265381 72.32983611 34.3131007 70.64453125 33.3984375 C68.1151823 32.06090881 65.60235113 30.97360075 62.9375 29.9375 C59.04508291 28.42411855 55.23475364 26.7900399 51.4296875 25.0703125 C47.58718663 23.37763527 43.69051558 21.81694081 39.796875 20.24609375 C37 19 37 19 34.453125 17.44140625 C31.96085135 15.97699705 29.78565014 15.23123316 27 14.5 C24.25927288 13.78055913 22.12117776 13.07360882 19.69140625 11.59765625 C16.25231398 9.55616316 12.69236521 8.28319413 8.9375 6.9375 C1.40846442 4.21277154 1.40846442 4.21277154 -1.2421875 2.83203125 C-4.48288588 1.29810068 -7.46220708 1.77537823 -11 2 C-14.24849977 3.72226496 -14.24849977 3.72226496 -15 7 C-15.09682565 9.94485186 -15.13638736 12.86587184 -15.12939453 15.81079102 C-15.13114685 16.7120018 -15.13289917 17.61321259 -15.13470459 18.54173279 C-15.13911478 21.52914339 -15.13618629 24.51649501 -15.1328125 27.50390625 C-15.13348619 29.5831656 -15.13445676 31.66242488 -15.13571167 33.74168396 C-15.13718785 38.10717516 -15.13503815 42.47264594 -15.13037109 46.83813477 C-15.12469863 52.41406938 -15.1279375 57.9899556 -15.13394356 63.5658884 C-15.1375725 67.86490741 -15.13639946 72.16391513 -15.13381577 76.46293449 C-15.13315165 78.51728254 -15.13395678 80.57163164 -15.13629532 82.62597847 C-15.13885742 85.51182861 -15.13493044 88.39760273 -15.12939453 91.28344727 C-15.13141876 92.12175079 -15.13344299 92.96005432 -15.13552856 93.82376099 C-15.49519763 105.60520655 -15.49519763 105.60520655 -11 116 C-5.10541741 119.92972173 3.05022999 118.33804251 9.75 117 C11.16942621 116.67862048 12.58736684 116.350033 14 116 C8.45431921 120.48818955 2.01997006 121.6381791 -5 121 C-10.18948982 119.32880836 -12.97204246 117.54193631 -16 113 C-17.16288895 110.6742221 -17.1330151 109.31470376 -17.14717102 106.72427368 C-17.15432632 105.82699051 -17.16148163 104.92970734 -17.16885376 104.00523376 C-17.17154266 103.01817947 -17.17423157 102.03112518 -17.17700195 101.01416016 C-17.18357315 99.97666122 -17.19014435 98.93916229 -17.19691467 97.870224 C-17.21667504 94.42650283 -17.22831526 90.98282529 -17.23828125 87.5390625 C-17.24235678 86.36540508 -17.2464323 85.19174767 -17.25063133 83.98252487 C-17.27150193 77.7728569 -17.28580042 71.56321111 -17.29516602 65.35351562 C-17.30624358 58.92822267 -17.34065653 52.50327478 -17.38033772 46.07810402 C-17.40643429 41.14709818 -17.41485158 36.21617549 -17.41844749 31.28510666 C-17.42333003 28.91596516 -17.434991 26.54682778 -17.45348549 24.17775345 C-17.47773255 20.86643043 -17.47693826 17.55601279 -17.4699707 14.24462891 C-17.48278076 13.26162308 -17.49559082 12.27861725 -17.50878906 11.26582336 C-17.45785072 4.64217632 -17.45785072 4.64217632 -15.14338684 1.39593506 C-10.57552674 -1.57899972 -5.19680734 -0.68375319 0 0 Z " fill="#FDF3BE" transform="translate(20,3)"/>
<path d="M0 0 C0.33 0 0.66 0 1 0 C1.8382387 14.07565889 2.1494845 28.09256056 2.1328125 42.19140625 C2.13348832 44.24071769 2.13446064 46.29002904 2.13571167 48.33934021 C2.13716993 52.58552837 2.13509144 56.83169521 2.13037109 61.07788086 C2.12461248 66.5228595 2.12800282 71.9677895 2.13394356 77.41276646 C2.13754745 81.62225211 2.13641245 85.83172609 2.13381577 90.04121208 C2.13314921 92.05110619 2.13396544 94.06100137 2.13629532 96.07089424 C2.13882565 98.86052425 2.13497866 101.65007332 2.12939453 104.43969727 C2.13141876 105.26710922 2.13344299 106.09452118 2.13552856 106.94700623 C2.12333619 110.22331536 2.04349792 112.86950623 1 116 C-2.23026369 118.27314853 -5.13121489 118.48359814 -9 118 C-11.375 116 -11.375 116 -13 114 C-12.67 113.67 -12.34 113.34 -12 113 C-15.93026567 110.94128941 -19.77488812 109.34435378 -24 108 C-24.66 107.67 -25.32 107.34 -26 107 C-26 106.34 -26 105.68 -26 105 C-27.134375 104.731875 -28.26875 104.46375 -29.4375 104.1875 C-30.613125 103.795625 -31.78875 103.40375 -33 103 C-33.33 102.01 -33.66 101.02 -34 100 C-35.32 100 -36.64 100 -38 100 C-38 99.34 -38 98.68 -38 98 C-36 98.66666667 -34 99.33333333 -32 100 C-31.21882812 100.22945313 -30.43765625 100.45890625 -29.6328125 100.6953125 C-28.42238281 101.06269531 -28.42238281 101.06269531 -27.1875 101.4375 C-26.41792969 101.66308594 -25.64835938 101.88867188 -24.85546875 102.12109375 C-23.93701172 102.55615234 -23.93701172 102.55615234 -23 103 C-22.67 103.99 -22.34 104.98 -22 106 C-20.03696127 106.95356065 -20.03696127 106.95356065 -17.6875 107.5625 C-14.60133064 108.46539583 -11.84114634 109.48515539 -9 111 C-9 111.66 -9 112.32 -9 113 C-4.70111387 111.48134786 -4.70111387 111.48134786 -1 109 C-0.8924055 107.58366281 -0.85319678 106.1620562 -0.84178162 104.74168396 C-0.8319928 103.8231665 -0.82220398 102.90464905 -0.81211853 101.95829773 C-0.80636307 100.94266251 -0.8006076 99.92702728 -0.79467773 98.88061523 C-0.78477814 97.81733002 -0.77487854 96.7540448 -0.76467896 95.65853882 C-0.73295665 92.12524686 -0.70826427 88.59194142 -0.68359375 85.05859375 C-0.66303348 82.61621236 -0.64203727 80.1738346 -0.62062073 77.73146057 C-0.5653043 71.28869561 -0.51593737 64.84589804 -0.46777344 58.40307617 C-0.41762811 51.83444297 -0.36190576 45.2658574 -0.30664062 38.69726562 C-0.19894206 25.79821801 -0.09733403 12.89912977 0 0 Z " fill="#DCA35E" transform="translate(161,36)"/>
<path d="M0 0 C0.33 0.99 0.66 1.98 1 3 C1.845625 3.474375 2.69125 3.94875 3.5625 4.4375 C4.366875 4.953125 5.17125 5.46875 6 6 C6 7.32 6 8.64 6 10 C6.66 10 7.32 10 8 10 C8.04667656 25.74188837 8.08196748 41.48375812 8.10362434 57.22569847 C8.11394632 64.53460373 8.12802417 71.84346605 8.15087891 79.15234375 C8.17078467 85.5211746 8.18370973 91.88997435 8.18817699 98.25883543 C8.19078916 101.6325405 8.19694785 105.00615661 8.21146011 108.37983322 C8.22589009 112.14178587 8.22798151 115.90355167 8.22705078 119.66552734 C8.23424133 120.78977615 8.24143188 121.91402496 8.24884033 123.07234192 C8.246091 124.09320389 8.24334167 125.11406586 8.24050903 126.16586304 C8.24235262 127.05631506 8.24419621 127.94676708 8.24609566 128.8642025 C8 131 8 131 6 133 C3.875 132.625 3.875 132.625 2 132 C3.32 131.67 4.64 131.34 6 131 C6.02316504 118.56951193 6.04093636 106.139029 6.05181217 93.70852375 C6.05703187 87.9366155 6.064113 82.16472202 6.07543945 76.39282227 C6.0863007 70.82316632 6.09228373 65.25352459 6.09487724 59.68385887 C6.09672564 57.55838993 6.10033504 55.43292177 6.10573006 53.30745888 C6.11298339 50.33166444 6.11398912 47.3559288 6.11352539 44.38012695 C6.11712067 43.50043243 6.12071594 42.62073792 6.12442017 41.71438599 C6.11760428 37.67526092 6.01502498 33.94091625 5 30 C4.67 30 4.34 30 4 30 C3.89042969 28.70964844 3.78085938 27.41929688 3.66796875 26.08984375 C3.50841916 24.37233937 3.34822888 22.65489442 3.1875 20.9375 C3.11724609 20.08994141 3.04699219 19.24238281 2.97460938 18.36914062 C2.45791983 13.01623699 1.5181747 8.77628602 -1 4 C-1.66 3.67 -2.32 3.34 -3 3 C-3 2.34 -3 1.68 -3 1 C-5.31 0.67 -7.62 0.34 -10 0 C-10.99 1.485 -10.99 1.485 -12 3 C-14.4375 3.1875 -14.4375 3.1875 -17 3 C-17.99 3 -18.98 3 -20 3 C-20.99 3 -21.98 3 -23 3 C-22.67 1.68 -22.34 0.36 -22 -1 C-6.83333333 -3.16666667 -6.83333333 -3.16666667 0 0 Z " fill="#F8D894" transform="translate(156,21)"/>
<path d="M0 0 C1.60332791 -0.08121924 3.20784026 -0.13929134 4.8125 -0.1875 C6.15248047 -0.23970703 6.15248047 -0.23970703 7.51953125 -0.29296875 C10.41647515 0.04918998 11.22555028 0.75393573 13 3 C11.7625 2.896875 10.525 2.79375 9.25 2.6875 C5.94099519 2.7110098 5.19598095 2.85181928 2.4375 4.9375 C0.65204498 8.74129547 1.00705909 11.05746505 1.73828125 15.109375 C1.82464844 15.73328125 1.91101563 16.3571875 2 17 C1.67 17.33 1.34 17.66 1 18 C0.89961312 20.52415936 0.86382523 23.02097568 0.87060547 25.5456543 C0.86885315 26.33595535 0.86710083 27.12625641 0.86529541 27.94050598 C0.8608737 30.56843221 0.86381739 33.19629176 0.8671875 35.82421875 C0.86651422 37.64687615 0.86554398 39.46953346 0.86428833 41.29219055 C0.86281065 45.12147879 0.8649669 48.95074376 0.86962891 52.7800293 C0.8753061 57.68157413 0.87206043 62.58306396 0.86605644 67.48460674 C0.86243548 71.25332551 0.86359682 75.02203134 0.86618423 78.7907505 C0.8668503 80.59720682 0.86603627 82.40366432 0.86370468 84.21011925 C0.86115525 86.74256856 0.8650519 89.27493023 0.87060547 91.80737305 C0.86858124 92.55099091 0.86655701 93.29460876 0.86447144 94.0607605 C0.88099866 98.14454882 1.20778209 101.99317816 2 106 C2.66 106 3.32 106 4 106 C4.20625 106.61875 4.4125 107.2375 4.625 107.875 C6.62760402 110.96993349 8.44147572 111.20921683 12 112 C14.69276019 112.14529282 17.29920701 112.09313079 20 112 C17.33515635 114.66484365 15.90120172 114.32920836 12.1875 114.375 C8.23919968 114.30880095 6.36331521 114.20345652 2.875 112.25 C-0.02978644 108.76425627 -1.25049717 106.13467878 -1.24723816 101.584198 C-1.25143265 100.70651764 -1.25562714 99.82883728 -1.25994873 98.92456055 C-1.25432922 97.96960693 -1.24870972 97.01465332 -1.24291992 96.03076172 C-1.24481827 95.01901886 -1.24671661 94.007276 -1.24867249 92.96487427 C-1.25237812 89.61973327 -1.24168008 86.27480921 -1.23046875 82.9296875 C-1.22927686 80.60849025 -1.22882381 78.28729251 -1.2290802 75.96609497 C-1.22751577 71.10220316 -1.21922815 66.238385 -1.20581055 61.37451172 C-1.18880191 55.12857523 -1.18499677 48.88271956 -1.18575573 42.63676262 C-1.18548432 37.84481021 -1.18000816 33.05287561 -1.17275429 28.26092911 C-1.16956445 25.95714579 -1.16759948 23.65336045 -1.16686058 21.34957504 C-1.16470143 18.13649785 -1.15596691 14.9235078 -1.14526367 11.71044922 C-1.14571686 10.75144714 -1.14617004 9.79244507 -1.14663696 8.80438232 C-1.14237198 7.93234161 -1.13810699 7.0603009 -1.13371277 6.16183472 C-1.13203692 5.40194181 -1.13036108 4.64204891 -1.12863445 3.85912895 C-1 2 -1 2 0 0 Z " fill="#DD6455" transform="translate(7,6)"/>
<path d="M0 0 C8.50095434 1.94312692 17.89728639 5.91165099 25.29638672 10.52490234 C25.79138672 12.00990234 25.79138672 12.00990234 26.29638672 13.52490234 C22.27820435 12.22717826 18.37614511 10.7860056 14.48388672 9.14990234 C13.44103516 8.71548828 12.39818359 8.28107422 11.32373047 7.83349609 C8.68963924 6.69488892 6.12534819 5.46836105 3.54638672 4.21240234 C-0.76661788 2.27547119 -4.00246765 2.03857693 -8.70361328 2.52490234 C-11.95211305 4.2471673 -11.95211305 4.2471673 -12.70361328 7.52490234 C-12.80043894 10.4697542 -12.84000064 13.39077418 -12.83300781 16.33569336 C-12.83476013 17.23690414 -12.83651245 18.13811493 -12.83831787 19.06663513 C-12.84272806 22.05404574 -12.83979957 25.04139735 -12.83642578 28.02880859 C-12.83709947 30.10806795 -12.83807004 32.18732722 -12.83932495 34.2665863 C-12.84080113 38.63207751 -12.83865143 42.99754828 -12.83398438 47.36303711 C-12.82831191 52.93897173 -12.83155078 58.51485794 -12.83755684 64.09079075 C-12.84118578 68.38980976 -12.84001274 72.68881747 -12.83742905 76.98783684 C-12.83676493 79.04218489 -12.83757006 81.09653399 -12.8399086 83.15088081 C-12.8424707 86.03673095 -12.83854372 88.92250507 -12.83300781 91.80834961 C-12.83503204 92.64665314 -12.83705627 93.48495667 -12.83914185 94.34866333 C-13.19881091 106.1301089 -13.19881091 106.1301089 -8.70361328 116.52490234 C-2.80903069 120.45462407 5.34661671 118.86294486 12.04638672 117.52490234 C13.46581293 117.20352282 14.88375355 116.87493534 16.29638672 116.52490234 C10.75070593 121.0130919 4.31635678 122.16308144 -2.70361328 121.52490234 C-7.8931031 119.85371071 -10.67565574 118.06683865 -13.70361328 113.52490234 C-14.86650223 111.19912444 -14.83662838 109.8396061 -14.8507843 107.24917603 C-14.85793961 106.35189285 -14.86509491 105.45460968 -14.87246704 104.53013611 C-14.87515594 103.54308182 -14.87784485 102.55602753 -14.88061523 101.5390625 C-14.88718643 100.50156357 -14.89375763 99.46406464 -14.90052795 98.39512634 C-14.92028833 94.95140518 -14.93192854 91.50772763 -14.94189453 88.06396484 C-14.94597006 86.89030743 -14.95004559 85.71665001 -14.95424461 84.50742722 C-14.97511521 78.29775924 -14.9894137 72.08811345 -14.9987793 65.87841797 C-15.00985686 59.45312501 -15.04426981 53.02817712 -15.083951 46.60300636 C-15.11004757 41.67200052 -15.11846486 36.74107784 -15.12206078 31.810009 C-15.12694331 29.44086751 -15.13860428 27.07173013 -15.15709877 24.70265579 C-15.18134583 21.39133277 -15.18055154 18.08091514 -15.17358398 14.76953125 C-15.18639404 13.78652542 -15.1992041 12.80351959 -15.21240234 11.79072571 C-15.16138852 5.15726389 -15.16138852 5.15726389 -12.82585144 1.93099976 C-8.79487292 -0.73974125 -4.71139091 -0.63755327 0 0 Z " fill="#FAD5CA" transform="translate(17.70361328125,2.47509765625)"/>
<path d="M0 0 C0.515625 0.2475 1.03125 0.495 1.5625 0.75 C0.77875 1.36875 -0.005 1.9875 -0.8125 2.625 C-3.40587647 4.64858661 -3.40587647 4.64858661 -5.4375 6.75 C-6.4375 7.75 -7.4375 8.75 -8.4375 9.75 C-8.4375 9.09 -8.4375 8.43 -8.4375 7.75 C-9.0975 7.75 -9.7575 7.75 -10.4375 7.75 C-11.0975 9.07 -11.7575 10.39 -12.4375 11.75 C-13.4275 11.75 -14.4175 11.75 -15.4375 11.75 C-16.54586423 13.63316159 -16.54586423 13.63316159 -17.4375 15.75 C-17.1075 16.41 -16.7775 17.07 -16.4375 17.75 C-17.4275 18.08 -18.4175 18.41 -19.4375 18.75 C-20.30559439 23.95173095 -20.56265348 28.91978816 -20.5 34.1875 C-20.49548828 34.91904297 -20.49097656 35.65058594 -20.48632812 36.40429688 C-20.47468148 38.18623419 -20.45675191 39.96812863 -20.4375 41.75 C-19.7775 41.75 -19.1175 41.75 -18.4375 41.75 C-18.4375 43.07 -18.4375 44.39 -18.4375 45.75 C-17.1175 46.41 -15.7975 47.07 -14.4375 47.75 C-14.4375 48.41 -14.4375 49.07 -14.4375 49.75 C-10.1210078 50.51173392 -6.69316547 50.91063604 -2.4375 49.75 C-3.0975 51.07 -3.7575 52.39 -4.4375 53.75 C-7.4075 53.42 -10.3775 53.09 -13.4375 52.75 C-13.4375 52.09 -13.4375 51.43 -13.4375 50.75 C-18.3875 49.265 -18.3875 49.265 -23.4375 47.75 C-23.4375 36.2 -23.4375 24.65 -23.4375 12.75 C-22.7775 12.75 -22.1175 12.75 -21.4375 12.75 C-21.4375 12.09 -21.4375 11.43 -21.4375 10.75 C-19.05859375 9.1640625 -19.05859375 9.1640625 -15.875 7.375 C-12.35129042 5.39109755 -8.8647924 3.39487008 -5.4375 1.25 C-2.4375 -0.25 -2.4375 -0.25 0 0 Z " fill="#DD6228" transform="translate(81.4375,54.25)"/>
<path d="M0 0 C0.99 0 1.98 0 3 0 C4.41730986 10.8319596 4.12636402 21.7376321 4.09765625 32.63671875 C4.09578832 34.72850002 4.09436619 36.82028173 4.09336853 38.9120636 C4.08957288 44.384768 4.07976819 49.85744535 4.06866455 55.33013916 C4.05838657 60.92777134 4.05385729 66.52540795 4.04882812 72.12304688 C4.03814295 83.08204306 4.02110248 94.04101927 4 105 C3.34 104.67 2.68 104.34 2 104 C2 73.97 2 43.94 2 13 C1.67 13 1.34 13 1 13 C0.63447197 11.58622218 0.28304505 10.16879424 -0.0625 8.75 C-0.25972656 7.96109375 -0.45695313 7.1721875 -0.66015625 6.359375 C-1.01497267 3.89605178 -0.76877544 2.34395868 0 0 Z " fill="#EC9741" transform="translate(157,40)"/>
<path d="M0 0 C2.90002548 2.00239854 4.22143601 3.59255908 5.625 6.8125 C5.295 7.4725 4.965 8.1325 4.625 8.8125 C1.625 6.8125 1.625 6.8125 0.625 3.8125 C-3.8128561 2.70084768 -8.14456386 2.69722237 -12.6875 2.75 C-13.42806641 2.75451172 -14.16863281 2.75902344 -14.93164062 2.76367188 C-16.74612899 2.77537825 -18.56057534 2.79331102 -20.375 2.8125 C-20.375 3.4725 -20.375 4.1325 -20.375 4.8125 C-27 8.8125 -27 8.8125 -30.375 8.8125 C-30.375 9.4725 -30.375 10.1325 -30.375 10.8125 C-31.75898982 11.79141963 -33.15185566 12.76011518 -34.5859375 13.6640625 C-37.06029797 15.25240743 -39.40178061 17.00939687 -41.76171875 18.76171875 C-43.375 19.8125 -43.375 19.8125 -46.375 20.8125 C-47.035 21.8025 -47.695 22.7925 -48.375 23.8125 C-51.5 24 -51.5 24 -54.375 23.8125 C-53.055 23.1525 -51.735 22.4925 -50.375 21.8125 C-50.375 21.1525 -50.375 20.4925 -50.375 19.8125 C-48.13024344 18.32508371 -45.89558371 16.96094852 -43.5625 15.625 C-42.18669162 14.8216954 -40.81169824 14.01699344 -39.4375 13.2109375 C-38.75171875 12.8097168 -38.0659375 12.40849609 -37.359375 11.99511719 C-33.65031829 9.78465081 -30.05386345 7.40349967 -26.44921875 5.02734375 C-24.375 3.8125 -24.375 3.8125 -22.375 3.8125 C-22.375 3.1525 -22.375 2.4925 -22.375 1.8125 C-14.7112205 -0.87542266 -7.87130705 -2.76953396 0 0 Z " fill="#EBCE66" transform="translate(154.375,17.1875)"/>
<path d="M0 0 C8.57142857 -0.28571429 8.57142857 -0.28571429 12 2 C12 2.66 12 3.32 12 4 C13.32 4 14.64 4 16 4 C16.33 4.66 16.66 5.32 17 6 C19.30965848 7.05352843 21.6429774 8.05719096 24 9 C24 9.66 24 10.32 24 11 C24.66386719 11.18175781 25.32773438 11.36351562 26.01171875 11.55078125 C35.60056657 14.28045326 35.60056657 14.28045326 39 17 C39 17.99 39 18.98 39 20 C39.66 20.66 40.32 21.32 41 22 C37.16344052 21.42960886 34.56732737 20.33739342 31.3125 18.25 C28.05709285 16.22791891 24.82434411 14.35691275 21.375 12.6875 C14.07029533 9.12879772 7.05781119 5.01927461 0 1 C0 0.67 0 0.34 0 0 Z " fill="#EAC07C" transform="translate(111,132)"/>
<path d="M0 0 C0.07403712 5.23271569 0.12854783 10.46512801 0.16479492 15.69824219 C0.17990173 17.47922067 0.20038835 19.26016184 0.22631836 21.04101562 C0.26261943 23.59774978 0.27970688 26.1539931 0.29296875 28.7109375 C0.30845261 29.50994476 0.32393646 30.30895203 0.33988953 31.13217163 C0.34057617 33.37646484 0.34057617 33.37646484 0 37 C-3 39 -3 39 -6 39 C-6 36 -6 36 -4 34 C-4.3185177 31.89179203 -4.3185177 31.89179203 -5 30 C-3.68 30 -2.36 30 -1 30 C-1.66 27.36 -2.32 24.72 -3 22 C-3.33 22 -3.66 22 -4 22 C-3.90460937 21.26394531 -3.80921875 20.52789062 -3.7109375 19.76953125 C-3.60007813 18.79371094 -3.48921875 17.81789063 -3.375 16.8125 C-3.25898437 15.84957031 -3.14296875 14.88664062 -3.0234375 13.89453125 C-2.99789189 10.73964827 -3.76171573 8.86353237 -5 6 C-4.625 3.1875 -4.625 3.1875 -4 1 C-1 0 -1 0 0 0 Z " fill="#FDA75B" transform="translate(58,66)"/>
<path d="M0 0 C3.11634584 0.64865117 5.57947193 1.74251388 8.375 3.25 C12.55221443 5.39739764 16.7465959 7.03490466 21.1875 8.5625 C26.22087651 10.29664272 30.46370319 12.25932068 35 15 C36.9812585 15.72045764 38.97669589 16.40781343 41 17 C41 17.33 41 17.66 41 18 C34.375 18.125 34.375 18.125 31 17 C30.67 16.34 30.34 15.68 30 15 C28.18464919 14.13102477 28.18464919 14.13102477 26.0625 13.4375 C23.96206733 12.70177676 21.99197374 11.99598687 20 11 C18.64718424 10.89703728 17.29257707 10.81691739 15.9375 10.75 C10.50844103 10.23000896 6.52957837 7.90192846 2 5 C2 4.34 2 3.68 2 3 C1.01 2.67 0.02 2.34 -1 2 C-0.67 1.34 -0.34 0.68 0 0 Z " fill="#E5C572" transform="translate(49,18)"/>
<path d="M0 0 C0.70125 0.474375 1.4025 0.94875 2.125 1.4375 C0.125 2.4375 0.125 2.4375 -3.3203125 1.62890625 C-9.40450478 0.77250051 -13.78044381 4.25691495 -18.75 7.375 C-20.62047522 8.51227943 -22.49277957 9.64655777 -24.3671875 10.77734375 C-25.18558105 11.28644287 -26.00397461 11.79554199 -26.84716797 12.32006836 C-28.875 13.4375 -28.875 13.4375 -30.875 13.4375 C-30.875 12.1175 -30.875 10.7975 -30.875 9.4375 C-24.25 5.4375 -24.25 5.4375 -20.875 5.4375 C-20.52695312 4.51904297 -20.52695312 4.51904297 -20.171875 3.58203125 C-15.99129327 -3.33103914 -6.34643932 -3.44915181 0 0 Z " fill="#ECB985" transform="translate(64.875,105.5625)"/>
<path d="M0 0 C0.66 0.33 1.32 0.66 2 1 C-5.8111588 9.03433476 -5.8111588 9.03433476 -10.125 10.9375 C-12.24721524 11.90297353 -12.24721524 11.90297353 -13.1875 14.5 C-15.33300379 17.45931557 -16.04007863 17.46543502 -19.5 18.125 C-20.2734375 18.23070313 -21.046875 18.33640625 -21.84375 18.4453125 C-24.36210113 19.0931492 -25.34596749 20.03848709 -27 22 C-28.98 21.34 -30.96 20.68 -33 20 C-33 19.67 -33 19.34 -33 19 C-31.329375 18.8453125 -31.329375 18.8453125 -29.625 18.6875 C-28.42875 18.460625 -27.2325 18.23375 -26 18 C-25.34 17.01 -24.68 16.02 -24 15 C-22.01171875 13.75390625 -22.01171875 13.75390625 -19.6875 12.5625 C-16.123688 10.67173157 -13.12767789 8.55900919 -10 6 C-9.34 6 -8.68 6 -8 6 C-8 5.34 -8 4.68 -8 4 C-6.71349294 3.30289269 -5.42059335 2.61757124 -4.125 1.9375 C-3.40570313 1.55464844 -2.68640625 1.17179687 -1.9453125 0.77734375 C-0.98238281 0.39255859 -0.98238281 0.39255859 0 0 Z " fill="#F1BC51" transform="translate(132,22)"/>
<path d="M0 0 C4.19594132 0.11248412 7.49977449 1.20235452 11.37890625 2.84765625 C12.01014404 3.11215576 12.64138184 3.37665527 13.29174805 3.64916992 C21.06852293 6.94861138 28.7606288 10.50726752 36.31640625 14.28515625 C36.31640625 14.94515625 36.31640625 15.60515625 36.31640625 16.28515625 C34.66640625 16.28515625 33.01640625 16.28515625 31.31640625 16.28515625 C30.82140625 14.80015625 30.82140625 14.80015625 30.31640625 13.28515625 C29.47078125 13.34703125 28.62515625 13.40890625 27.75390625 13.47265625 C23.68865753 13.25091541 20.98074926 12.01739113 17.31640625 10.28515625 C15.89328125 9.75921875 15.89328125 9.75921875 14.44140625 9.22265625 C12.31640625 8.28515625 12.31640625 8.28515625 11.31640625 6.28515625 C5.73569458 3.3166926 0.5816185 2.65073202 -5.68359375 2.28515625 C-3.68359375 0.28515625 -3.68359375 0.28515625 0 0 Z " fill="#C97D6B" transform="translate(12.68359375,3.71484375)"/>
<path d="M0 0 C2.97 0.495 2.97 0.495 6 1 C3.64314652 3.65822163 1.26440983 4.99775058 -1.9375 6.5 C-4.56977263 7.73871653 -6.86744695 8.89981731 -9.19140625 10.65625 C-11 12 -11 12 -13 12 C-13 12.66 -13 13.32 -13 14 C-15.046875 15.54296875 -15.046875 15.54296875 -17.75 17.1875 C-19.07257813 18.01314453 -19.07257813 18.01314453 -20.421875 18.85546875 C-23 20 -23 20 -25.328125 19.67578125 C-26.15570313 19.34126953 -26.15570313 19.34126953 -27 19 C-27.33 17.68 -27.66 16.36 -28 15 C-27.34 15.66 -26.68 16.32 -26 17 C-25.01 16.67 -24.02 16.34 -23 16 C-21.66893378 15.65772583 -20.33599921 15.32248257 -19 15 C-19 14.34 -19 13.68 -19 13 C-18.01 12.67 -17.02 12.34 -16 12 C-15.34 11.01 -14.68 10.02 -14 9 C-13 8 -13 8 -10.4375 7.9375 C-9.2309375 7.9684375 -9.2309375 7.9684375 -8 8 C-8 7.34 -8 6.68 -8 6 C-2.25 3 -2.25 3 0 3 C0 2.01 0 1.02 0 0 Z " fill="#FBB43D" transform="translate(92,41)"/>
<path d="M0 0 C3.67957438 3.06631198 5.51959887 5.96907534 7 10.5 C7.25 13.5 7.25 13.5 7 15.5 C6.7525 14.943125 6.505 14.38625 6.25 13.8125 C5.01583725 11.34916017 5.01583725 11.34916017 2.875 8.9375 C1 6.5 1 6.5 1 3.5 C-7.06466208 0.19142068 -13.80275202 1.07241144 -21.8359375 3.94140625 C-24 4.5 -24 4.5 -27 3.5 C-25.730447 2.85165346 -24.45930294 2.20642185 -23.1875 1.5625 C-22.47980469 1.20285156 -21.77210938 0.84320312 -21.04296875 0.47265625 C-14.82242688 -2.48894017 -6.30602792 -3.11188769 0 0 Z " fill="#FCF3B6" transform="translate(156,15.5)"/>
<path d="M0 0 C1.9451 2.91765 2.45276317 4.62537285 3 8 C3.66 8 4.32 8 5 8 C5 9.32 5 10.64 5 12 C6.32 12.66 7.64 13.32 9 14 C9 14.66 9 15.32 9 16 C13.3164922 16.76173392 16.74433453 17.16063604 21 16 C20.34 17.32 19.68 18.64 19 20 C16.03 19.67 13.06 19.34 10 19 C10 18.34 10 17.68 10 17 C6.7 16.01 3.4 15.02 0 14 C0 9.38 0 4.76 0 0 Z " fill="#D86725" transform="translate(58,88)"/>
<path d="M0 0 C2 0.66666667 4 1.33333333 6 2 C7.17175781 2.34417969 7.17175781 2.34417969 8.3671875 2.6953125 C9.17414063 2.94023437 9.98109375 3.18515625 10.8125 3.4375 C11.58207031 3.66308594 12.35164062 3.88867188 13.14453125 4.12109375 C14.06298828 4.55615234 14.06298828 4.55615234 15 5 C15.33 5.99 15.66 6.98 16 8 C17.96303873 8.95356065 17.96303873 8.95356065 20.3125 9.5625 C23.39866936 10.46539583 26.15885366 11.48515539 29 13 C29 13.66 29 14.32 29 15 C31.64 14.01 34.28 13.02 37 12 C37 12.99 37 13.98 37 15 C33.00721409 16.33092864 29.16549859 16.99115011 25.19921875 15.17578125 C24.02331314 14.47440961 22.85772062 13.75545593 21.703125 13.01953125 C19.27499627 11.56599547 16.69733579 10.81547361 14 10 C13.34 9.67 12.68 9.34 12 9 C12 8.34 12 7.68 12 7 C10.865625 6.731875 9.73125 6.46375 8.5625 6.1875 C7.386875 5.795625 6.21125 5.40375 5 5 C4.67 4.01 4.34 3.02 4 2 C2.68 2 1.36 2 0 2 C0 1.34 0 0.68 0 0 Z " fill="#F0A744" transform="translate(123,134)"/>
<path d="M0 0 C8 -0.15384615 8 -0.15384615 11 1 C11.33 1.66 11.66 2.32 12 3 C14.22596002 3.84692901 16.48363587 4.46846299 18.7734375 5.12109375 C21.15025499 6.05931118 22.34534316 7.08380062 24 9 C14.50480413 10.33265907 7.90479979 5.66581068 0 1 C0 0.67 0 0.34 0 0 Z " fill="#E19C55" transform="translate(94,123)"/>
<path d="M0 0 C0.99 0.33 1.98 0.66 3 1 C0 3 0 3 -3 3 C-3 3.66 -3 4.32 -3 5 C-4.38398982 5.97891963 -5.77685566 6.94761518 -7.2109375 7.8515625 C-9.68529797 9.43990743 -12.02678061 11.19689687 -14.38671875 12.94921875 C-16 14 -16 14 -19 15 C-19.99 16.485 -19.99 16.485 -21 18 C-24.125 18.1875 -24.125 18.1875 -27 18 C-25.68 17.34 -24.36 16.68 -23 16 C-23 15.34 -23 14.68 -23 14 C-20.6927205 12.47082648 -18.39671962 11.06326904 -16 9.6875 C-14.61929612 8.88235962 -13.23908339 8.07637635 -11.859375 7.26953125 C-11.19228516 6.88104004 -10.52519531 6.49254883 -9.83789062 6.09228516 C-7.59288977 4.75804847 -5.42200829 3.32436643 -3.25 1.875 C-2.1775 1.25625 -1.105 0.6375 0 0 Z " fill="#E4BB75" transform="translate(127,23)"/>
<path d="M0 0 C-0.9075 0.598125 -1.815 1.19625 -2.75 1.8125 C-6.18910689 4.12728348 -9.3651543 6.39856723 -12.375 9.25 C-15 11 -15 11 -18.3125 10.75 C-19.199375 10.5025 -20.08625 10.255 -21 10 C-6.42750929 -2.29553903 -6.42750929 -2.29553903 0 0 Z " fill="#E87A23" transform="translate(100,44)"/>
<path d="M0 0 C0 0.66 0 1.32 0 2 C-0.66 2 -1.32 2 -2 2 C-2 1.34 -2 0.68 -2 0 C-4.31 -0.33 -6.62 -0.66 -9 -1 C-9.99 0.485 -9.99 0.485 -11 2 C-13.4375 2.1875 -13.4375 2.1875 -16 2 C-16.99 2 -17.98 2 -19 2 C-19.99 2 -20.98 2 -22 2 C-21.67 0.68 -21.34 -0.64 -21 -2 C-5.23364486 -4.25233645 -5.23364486 -4.25233645 0 0 Z " fill="#F9C936" transform="translate(155,22)"/>
<path d="M0 0 C7.20250197 0.8988344 12.95225461 1.87653724 19 6 C19 6.99 19 7.98 19 9 C19.66 9.66 20.32 10.32 21 11 C17.0722162 10.42588543 14.40282386 9.24634312 11.0625 7.125 C7.4410358 4.87308803 3.85189051 2.82457972 0 1 C0 0.67 0 0.34 0 0 Z " fill="#F0D289" transform="translate(131,143)"/>
<path d="M0 0 C3.74260121 0.62602128 6.94009488 1.6979165 10.4140625 3.21484375 C11.92613281 3.87323242 11.92613281 3.87323242 13.46875 4.54492188 C14.5103125 5.00447266 15.551875 5.46402344 16.625 5.9375 C17.67429687 6.39318359 18.72359375 6.84886719 19.8046875 7.31835938 C27.59114583 10.72743056 27.59114583 10.72743056 31 13 C23.88482467 12.3812891 17.4300103 10.07395971 11.3125 6.375 C8.88543339 4.79191804 8.88543339 4.79191804 5.3125 4 C2 3 2 3 0 0 Z " fill="#FCEBD5" transform="translate(43,14)"/>
<path d="M0 0 C3.65564909 0.68761019 6.51867272 2.25449545 9.75 4.0625 C10.73484375 4.61035156 11.7196875 5.15820312 12.734375 5.72265625 C13.48203125 6.14417969 14.2296875 6.56570312 15 7 C15 7.99 15 8.98 15 10 C10.14036821 9.39254603 6.2594482 7.27241033 2 5 C2 4.34 2 3.68 2 3 C1.01 2.67 0.02 2.34 -1 2 C-0.67 1.34 -0.34 0.68 0 0 Z " fill="#DFAF84" transform="translate(49,18)"/>
<path d="M0 0 C0.52464844 0.2475 1.04929688 0.495 1.58984375 0.75 C1.05359375 1.06710938 0.51734375 1.38421875 -0.03515625 1.7109375 C-4.24262318 4.21604116 -8.42258202 6.74561003 -12.53125 9.41015625 C-13.24345703 9.86793457 -13.95566406 10.32571289 -14.68945312 10.79736328 C-16.11934217 11.71838005 -17.54393864 12.64767001 -18.96289062 13.58544922 C-20.73083705 14.71860476 -22.56704317 15.74371465 -24.41015625 16.75 C-25.40015625 16.42 -26.39015625 16.09 -27.41015625 15.75 C-26.77851562 15.34910156 -26.146875 14.94820312 -25.49609375 14.53515625 C-24.60148437 13.96667969 -23.706875 13.39820313 -22.78515625 12.8125 C-21.79128906 12.18472656 -20.79742187 11.55695312 -19.7734375 10.91015625 C-17.39345096 9.38154701 -15.04295524 7.83337906 -12.703125 6.24609375 C-12.08324707 5.83157959 -11.46336914 5.41706543 -10.82470703 4.98999023 C-9.60404898 4.17273183 -8.38993853 3.34559549 -7.18310547 2.50805664 C-2.94545462 -0.30552528 -2.94545462 -0.30552528 0 0 Z " fill="#FDEFC7" transform="translate(130.41015625,20.25)"/>
<path d="M0 0 C-1 2 -1 2 -2.86328125 2.8515625 C-9.68630718 5.00620227 -15.87445306 5.33056661 -23 5 C-23.66 3.68 -24.32 2.36 -25 1 C-24.34 0.67 -23.68 0.34 -23 0 C-22.67 0.66 -22.34 1.32 -22 2 C-17.38 2 -12.76 2 -8 2 C-8 1.34 -8 0.68 -8 0 C-4.71303767 -0.79953138 -3.28976808 -1.09658936 0 0 Z " fill="#C46E5D" transform="translate(35,117)"/>
<path d="M0 0 C0.33 0 0.66 0 1 0 C1.0867982 3.79152334 1.14032207 7.58279296 1.1875 11.375 C1.21263672 12.45523438 1.23777344 13.53546875 1.26367188 14.6484375 C1.27333984 15.6796875 1.28300781 16.7109375 1.29296875 17.7734375 C1.3086792 18.72653809 1.32438965 19.67963867 1.34057617 20.66162109 C1.22818604 21.43328613 1.1157959 22.20495117 1 23 C-2 25 -2 25 -5 25 C-5 22 -5 22 -3 20 C-3.3185177 17.89179203 -3.3185177 17.89179203 -4 16 C-2.68 16 -1.36 16 0 16 C0 10.72 0 5.44 0 0 Z " fill="#FD9C50" transform="translate(57,80)"/>
<path d="M0 0 C7.1336242 1.68871192 13.52316521 4.64592484 20 8 C20 8.66 20 9.32 20 10 C18.35 10 16.7 10 15 10 C14.67 9.01 14.34 8.02 14 7 C12.6078125 7.061875 12.6078125 7.061875 11.1875 7.125 C8 7 8 7 5 5 C5 4.34 5 3.68 5 3 C3.35 2.67 1.7 2.34 0 2 C0 1.34 0 0.68 0 0 Z " fill="#D28E70" transform="translate(29,10)"/>
<path d="M0 0 C0.99 0.99 1.98 1.98 3 3 C-0.58958692 8.38438038 -7.55300816 11.24792905 -13.79296875 12.609375 C-15.85406291 12.83219599 -17.92804722 12.93093491 -20 13 C-16.77208445 10.8480563 -15.71599191 10.79913557 -12 11 C-12 10.34 -12 9.68 -12 9 C-11.36191406 8.81824219 -10.72382812 8.63648437 -10.06640625 8.44921875 C-9.24011719 8.19785156 -8.41382813 7.94648437 -7.5625 7.6875 C-6.32693359 7.32205078 -6.32693359 7.32205078 -5.06640625 6.94921875 C-4.38449219 6.63597656 -3.70257813 6.32273437 -3 6 C-2.67 5.01 -2.34 4.02 -2 3 C-1.34 3 -0.68 3 0 3 C0 2.01 0 1.02 0 0 Z " fill="#E6884C" transform="translate(43,105)"/>
<path d="M0 0 C0.33 0.66 0.66 1.32 1 2 C1.99 2.33 2.98 2.66 4 3 C2.04480616 4.17192047 0.0857461 5.3373929 -1.875 6.5 C-2.96554688 7.1496875 -4.05609375 7.799375 -5.1796875 8.46875 C-8 10 -8 10 -10 10 C-10 8.68 -10 7.36 -10 6 C-3.375 2 -3.375 2 0 2 C0 1.34 0 0.68 0 0 Z " fill="#E5B792" transform="translate(44,109)"/>
<path d="M0 0 C-0.33 1.32 -0.66 2.64 -1 4 C-1.92232422 4.16435547 -1.92232422 4.16435547 -2.86328125 4.33203125 C-4.07564453 4.56986328 -4.07564453 4.56986328 -5.3125 4.8125 C-6.51326172 5.03873047 -6.51326172 5.03873047 -7.73828125 5.26953125 C-10.23445587 6.07572236 -11.32422106 7.02052002 -13 9 C-14.98 8.34 -16.96 7.68 -19 7 C-19 6.67 -19 6.34 -19 6 C-17.88625 5.896875 -16.7725 5.79375 -15.625 5.6875 C-14.42875 5.460625 -13.2325 5.23375 -12 5 C-11.34 4.01 -10.68 3.02 -10 2 C-6.53500259 0.8030009 -3.67219242 0 0 0 Z " fill="#ED9D45" transform="translate(118,35)"/>
<path d="M0 0 C2 1 2 1 2.61889648 2.69628906 C3.07496952 5.453179 3.11191697 8.06427385 3.09765625 10.859375 C3.09443359 11.97441406 3.09121094 13.08945312 3.08789062 14.23828125 C3.07951172 15.39714844 3.07113281 16.55601563 3.0625 17.75 C3.05798828 18.92433594 3.05347656 20.09867188 3.04882812 21.30859375 C3.03705094 24.20578072 3.02060326 27.10286454 3 30 C2.67 30 2.34 30 2 30 C1.96241577 29.16976318 1.96241577 29.16976318 1.92407227 28.32275391 C1.2941189 14.1368692 1.2941189 14.1368692 0 0 Z " fill="#EBCF86" transform="translate(160,26)"/>
<path d="M0 0 C1.98 0 3.96 0 6 0 C6 0.66 6 1.32 6 2 C10.3164922 2.76173392 13.74433453 3.16063604 18 2 C17.34 3.32 16.68 4.64 16 6 C13.03 5.67 10.06 5.34 7 5 C7 4.34 7 3.68 7 3 C4.69 2.34 2.38 1.68 0 1 C0 0.67 0 0.34 0 0 Z " fill="#E76E38" transform="translate(61,102)"/>
<path d="M0 0 C6.625 0.75 6.625 0.75 10 3 C10 3.66 10 4.32 10 5 C11.423125 5.1546875 11.423125 5.1546875 12.875 5.3125 C16 6 16 6 18 9 C17.01 9.495 17.01 9.495 16 10 C11.89719062 8.50806932 8.99482836 7.12503829 6 4 C4.02379014 2.95377125 2.0262871 1.94560065 0 1 C0 0.67 0 0.34 0 0 Z " fill="#D58861" transform="translate(58,102)"/>
<path d="M0 0 C3.71888239 0.50712033 6.73454239 1.11608215 10 3 C10 3.66 10 4.32 10 5 C12.64 4.01 15.28 3.02 18 2 C18 2.99 18 3.98 18 5 C13.67779405 6.44073532 9.99202339 6.96466867 5.765625 4.91796875 C3.7650852 3.68714018 1.84132107 2.4587089 0 1 C0 0.67 0 0.34 0 0 Z " fill="#F4BC44" transform="translate(142,144)"/>
<path d="M0 0 C1.258125 -0.04125 2.51625 -0.0825 3.8125 -0.125 C4.52019531 -0.14820313 5.22789062 -0.17140625 5.95703125 -0.1953125 C8 0 8 0 11 2 C11 2.66 11 3.32 11 4 C11.99 4.33 12.98 4.66 14 5 C12 6 12 6 9.94140625 5.546875 C9.15636719 5.28390625 8.37132812 5.0209375 7.5625 4.75 C6.38880859 4.37101563 6.38880859 4.37101563 5.19140625 3.984375 C2.90761001 2.95849862 1.63467754 1.87120644 0 0 Z " fill="#EAC989" transform="translate(124,139)"/>
<path d="M0 0 C0.99 0 1.98 0 3 0 C3 3.96 3 7.92 3 12 C2.01 12.495 2.01 12.495 1 13 C0.63447197 11.58622218 0.28304505 10.16879424 -0.0625 8.75 C-0.25972656 7.96109375 -0.45695313 7.1721875 -0.66015625 6.359375 C-1.01497267 3.89605178 -0.76877544 2.34395868 0 0 Z " fill="#F4A939" transform="translate(157,40)"/>
<path d="M0 0 C2.31 0 4.62 0 7 0 C7.33 0.99 7.66 1.98 8 3 C10.08812458 4.45644757 10.08812458 4.45644757 12.5625 5.6875 C13.38878906 6.12449219 14.21507813 6.56148437 15.06640625 7.01171875 C16.02353516 7.50091797 16.02353516 7.50091797 17 8 C16.01 8.495 16.01 8.495 15 9 C12.38838269 7.75874818 9.89498214 6.4689476 7.375 5.0625 C6.66859375 4.67642578 5.9621875 4.29035156 5.234375 3.89257812 C3.48566349 2.93551304 1.74231568 1.96865969 0 1 C0 0.67 0 0.34 0 0 Z " fill="#F2D1A8" transform="translate(94,123)"/>
<path d="M0 0 C-1.7578125 0.94401042 -3.515625 1.88802083 -5.2734375 2.83203125 C-7.30502365 4.04763493 -7.30502365 4.04763493 -9 7 C-12.125 7.1875 -12.125 7.1875 -15 7 C-13.68 6.34 -12.36 5.68 -11 5 C-11 4.34 -11 3.68 -11 3 C-3.88372093 -1.94186047 -3.88372093 -1.94186047 0 0 Z " fill="#DCA566" transform="translate(115,34)"/>
<path d="M0 0 C3.40312738 1.05875074 6.01353231 2.00902154 9 4 C10.98799818 4.70164642 12.98698517 5.37372872 15 6 C15 6.99 15 7.98 15 9 C14.01 8.67 13.02 8.34 12 8 C12 7.34 12 6.68 12 6 C11.38511719 5.98582031 10.77023438 5.97164063 10.13671875 5.95703125 C7.66500527 5.81117256 5.40322852 5.60506817 3 5 C0.9375 2.4375 0.9375 2.4375 0 0 Z " fill="#E68746" transform="translate(93,118)"/>
<path d="M0 0 C5.45479185 0.56820748 9.91059256 1.94637945 15 4 C15 4.33 15 4.66 15 5 C11.37795519 5.98097047 9.23570564 6.5566048 5.75390625 4.98828125 C3.74731212 3.73997225 1.8315776 2.49380615 0 1 C0 0.67 0 0.34 0 0 Z " fill="#F1BB64" transform="translate(64,28)"/>
<path d="M0 0 C1.03060547 0.32484375 1.03060547 0.32484375 2.08203125 0.65625 C2.98308594 0.9346875 3.88414063 1.213125 4.8125 1.5 C5.70582031 1.7784375 6.59914063 2.056875 7.51953125 2.34375 C10.05573395 3.12788351 10.05573395 3.12788351 13 3 C13 3.66 13 4.32 13 5 C8.78892722 6.26332183 6.4543291 6.00441956 2.625 4.0625 C1.40811576 3.39025121 0.1966397 2.70765749 -1 2 C-0.67 1.34 -0.34 0.68 0 0 Z " fill="#FBE6AA" transform="translate(91,34)"/>
<path d="M0 0 C0.33 0.66 0.66 1.32 1 2 C0 5 0 5 -1.6875 6.1875 C-4.69155189 7.24297769 -6.83502789 7.39562151 -10 7 C-12.375 5 -12.375 5 -14 3 C-13.22914063 3.0721875 -12.45828125 3.144375 -11.6640625 3.21875 C-10.66117188 3.3115625 -9.65828125 3.404375 -8.625 3.5 C-7.12839844 3.63921875 -7.12839844 3.63921875 -5.6015625 3.78125 C-3.10296264 4.02792947 -3.10296264 4.02792947 -1 4 C-0.67 2.68 -0.34 1.36 0 0 Z " fill="#E5CB7A" transform="translate(162,147)"/>
<path d="M0 0 C-0.78375 0.45375 -1.5675 0.9075 -2.375 1.375 C-5.03698031 2.88428742 -5.03698031 2.88428742 -7 5 C-10.125 5.125 -10.125 5.125 -13 5 C-4.9 -1.75 -4.9 -1.75 0 0 Z " fill="#F3AF4A" transform="translate(125,31)"/>
<path d="M0 0 C4.29 1.32 8.58 2.64 13 4 C13 4.99 13 5.98 13 7 C8.14036821 6.39254603 4.2594482 4.27241033 0 2 C0 1.34 0 0.68 0 0 Z " fill="#ECAB6A" transform="translate(51,21)"/>
<path d="M0 0 C1.32 0.66 2.64 1.32 4 2 C2.76055724 2.86941494 1.50792941 3.72005457 0.25 4.5625 C-0.44609375 5.03816406 -1.1421875 5.51382813 -1.859375 6.00390625 C-4 7 -4 7 -6.265625 6.65234375 C-6.83796875 6.43707031 -7.4103125 6.22179688 -8 6 C-8.33 4.68 -8.66 3.36 -9 2 C-8.34 2.66 -7.68 3.32 -7 4 C-6.01 3.67 -5.02 3.34 -4 3 C-2.66893378 2.65772583 -1.33599921 2.32248257 0 2 C0 1.34 0 0.68 0 0 Z " fill="#FBA94B" transform="translate(73,54)"/>
<path d="M0 0 C0.515625 0.2475 1.03125 0.495 1.5625 0.75 C-3.96591596 5.51058041 -3.96591596 5.51058041 -7.4375 5.75 C-8.0975 5.09 -8.7575 4.43 -9.4375 3.75 C-3.0375 -0.31153846 -3.0375 -0.31153846 0 0 Z " fill="#E36A22" transform="translate(81.4375,54.25)"/>
<path d="M0 0 C0.99 0 1.98 0 3 0 C3.33 0.66 3.66 1.32 4 2 C6.3140622 2.73075648 8.64828869 3.40138258 11 4 C10.01 5.485 10.01 5.485 9 7 C8.67 6.67 8.34 6.34 8 6 C6.00041636 5.95919217 3.99954746 5.95745644 2 6 C1.34 4.02 0.68 2.04 0 0 Z " fill="#EB8C5B" transform="translate(40,17)"/>
<path d="M0 0 C-0.33 0.66 -0.66 1.32 -1 2 C-3.06640625 2.6328125 -3.06640625 2.6328125 -5.5625 3.125 C-6.38878906 3.29257813 -7.21507812 3.46015625 -8.06640625 3.6328125 C-8.70449219 3.75398438 -9.34257812 3.87515625 -10 4 C-10 3.34 -10 2.68 -10 2 C-9.34 2 -8.68 2 -8 2 C-8 1.34 -8 0.68 -8 0 C-4.71303767 -0.79953138 -3.28976808 -1.09658936 0 0 Z " fill="#CD8263" transform="translate(35,117)"/>
<path d="M0 0 C0.99 0.33 1.98 0.66 3 1 C3 1.66 3 2.32 3 3 C3.63808594 3.12117187 4.27617187 3.24234375 4.93359375 3.3671875 C6.17302734 3.61855469 6.17302734 3.61855469 7.4375 3.875 C8.26121094 4.03742187 9.08492187 4.19984375 9.93359375 4.3671875 C10.61550781 4.57601563 11.29742187 4.78484375 12 5 C12.33 5.66 12.66 6.32 13 7 C8.78121808 7.19622241 5.82989106 6.80230168 2 5 C2 4.01 2 3.02 2 2 C1.34 2 0.68 2 0 2 C0 1.34 0 0.68 0 0 Z " fill="#E27352" transform="translate(22,9)"/>
<path d="M0 0 C0.515625 0.2475 1.03125 0.495 1.5625 0.75 C-4.8375 4.81153846 -4.8375 4.81153846 -7.875 4.5 C-8.390625 4.2525 -8.90625 4.005 -9.4375 3.75 C-3.0375 -0.31153846 -3.0375 -0.31153846 0 0 Z " fill="#E5851F" transform="translate(98.4375,43.25)"/>
<path d="M0 0 C0 1.32 0 2.64 0 4 C-3 6 -3 6 -6 6 C-6 5.01 -6 4.02 -6 3 C-2.66666667 0 -2.66666667 0 0 0 Z " fill="#F1A353" transform="translate(58,99)"/>
<path d="M0 0 C0.33 0.99 0.66 1.98 1 3 C1.66 3 2.32 3 3 3 C3 4.32 3 5.64 3 7 C3.66 7.33 4.32 7.66 5 8 C3.68 8.33 2.36 8.66 1 9 C-1.125 3.375 -1.125 3.375 0 0 Z " fill="#E6652B" transform="translate(60,93)"/>
<path d="M0 0 C0.66 0.33 1.32 0.66 2 1 C1.649375 1.61875 1.29875 2.2375 0.9375 2.875 C0.4734375 3.926875 0.4734375 3.926875 0 5 C0.33 5.66 0.66 6.32 1 7 C0.01 7.33 -0.98 7.66 -2 8 C-2.66 8.99 -3.32 9.98 -4 11 C-4 9.02 -4 7.04 -4 5 C-3.01 4.67 -2.02 4.34 -1 4 C-0.26676204 1.98491642 -0.26676204 1.98491642 0 0 Z " fill="#E7582D" transform="translate(64,65)"/>
<path d="M0 0 C3.8063457 0.67170806 7.35206816 1.72746564 11 3 C11 3.33 11 3.66 11 4 C7.37 3.67 3.74 3.34 0 3 C0 2.01 0 1.02 0 0 Z " fill="#E9C58D" transform="translate(64,25)"/>
<path d="M0 0 C0 0.66 0 1.32 0 2 C-2.52053595 3.26026798 -3.8542098 2.91874445 -6.625 2.5625 C-7.85089844 2.40974609 -7.85089844 2.40974609 -9.1015625 2.25390625 C-9.72804687 2.17011719 -10.35453125 2.08632812 -11 2 C-11 1.67 -11 1.34 -11 1 C-7.26513121 0.4254048 -3.78706732 0 0 0 Z " fill="#ECC559" transform="translate(161,149)"/>
<path d="M0 0 C0 0.66 0 1.32 0 2 C-1.4117783 2.53394179 -2.82970244 3.05165104 -4.25 3.5625 C-5.03890625 3.85253906 -5.8278125 4.14257812 -6.640625 4.44140625 C-9.19103452 5.04522837 -10.55322229 4.8473932 -13 4 C-10.36 3.67 -7.72 3.34 -5 3 C-5 2.34 -5 1.68 -5 1 C-3 0 -3 0 0 0 Z " fill="#E87149" transform="translate(36,113)"/>
<path d="M0 0 C4.43090471 1.20842856 6.98112756 2.51668565 10 6 C5.25 5.125 5.25 5.125 3 4 C3 3.34 3 2.68 3 2 C2.01 1.67 1.02 1.34 0 1 C0 0.67 0 0.34 0 0 Z " fill="#ECB24C" transform="translate(132,139)"/>
<path d="M0 0 C4.85077588 1.11940982 7.777893 2.1334716 11 6 C6.48986609 5.46939601 3.61621781 3.69113883 0 1 C0 0.67 0 0.34 0 0 Z " fill="#FBEFBE" transform="translate(141,148)"/>
<path d="M0 0 C2.8125 -0.3125 2.8125 -0.3125 6 0 C7.875 2.5 7.875 2.5 9 5 C5.54074837 3.7508258 2.85306797 2.32472205 0 0 Z " fill="#D29060" transform="translate(87,118)"/>
<path d="M0 0 C2.31 0 4.62 0 7 0 C2.375 4 2.375 4 -1 4 C-0.67 2.68 -0.34 1.36 0 0 Z " fill="#F3C741" transform="translate(134,20)"/>
<path d="M0 0 C1.32 0 2.64 0 4 0 C5.75 2 5.75 2 7 4 C6.01 4.495 6.01 4.495 5 5 C2.375 3.6875 2.375 3.6875 0 2 C0 1.34 0 0.68 0 0 Z " fill="#DB985E" transform="translate(101,124)"/>
<path d="M0 0 C3.24732932 1.62366466 3.70155136 4.75387839 5 8 C2.00675737 6.9024777 1.15389099 6.32317108 -0.25 3.375 C-0.4975 2.59125 -0.745 1.8075 -1 1 C-0.67 0.67 -0.34 0.34 0 0 Z " fill="#C07668" transform="translate(6,112)"/>
<path d="M0 0 C1.32 0 2.64 0 4 0 C4 0.66 4 1.32 4 2 C5.65 2.33 7.3 2.66 9 3 C6.21176345 4.0326802 5.1322726 4.04509293 2.25 3.0625 C1.5075 2.711875 0.765 2.36125 0 2 C0 1.34 0 0.68 0 0 Z " fill="#D37D5F" transform="translate(25,10)"/>
</svg>
